<svg width="48" height="48" viewBox="0 0 48 48" fill="none" xmlns="http://www.w3.org/2000/svg">
<path d="M35.5 19C35.776 19 36 19.224 36 19.5V20.011C36 20.804 35.074 21 34.384 21L33.298 19H35.5ZM34.059 22.506C34.698 23.692 35.005 24.758 35.005 26.172C35.005 27.542 34.608 28.705 34 30.153V32C34 32.552 33.552 33 33 33H31.5C30.948 33 30.5 32.552 30.5 32V31H17.5V32C17.5 32.552 17.052 33 16.5 33H15C14.448 33 14 32.552 14 32V30.153C13.392 28.705 12.995 27.542 12.995 26.172C12.995 24.758 13.302 23.692 13.941 22.506C14.77 20.969 15.792 19.053 16.871 17.254C17.699 15.872 18.133 15.547 19.149 15.365C20.681 15.09 22.067 15 24 15C25.933 15 27.319 15.09 28.851 15.365C29.867 15.547 30.301 15.872 31.129 17.254C32.208 19.053 33.23 20.969 34.059 22.506ZM18 25.5C18 24.672 17.328 24 16.5 24C15.672 24 15 24.672 15 25.5C15 26.328 15.672 27 16.5 27C17.328 27 18 26.328 18 25.5ZM28 26.5C28 26.224 27.776 26 27.5 26H20.5C20.224 26 20 26.224 20 26.5C20 26.776 20.224 27 20.5 27H27.5C27.776 27 28 26.776 28 26.5ZM30.941 20.973C30.941 20.973 30.201 19.147 29.31 17.831C29.108 17.533 28.795 17.329 28.441 17.265C26.93 16.993 25.606 16.906 24 16.906C22.394 16.906 21.07 16.993 19.559 17.265C19.205 17.328 18.892 17.532 18.69 17.831C17.799 19.146 17.059 20.973 17.059 20.973C18.699 21.286 21.368 21.47 24 21.47C26.632 21.47 29.301 21.286 30.941 20.973ZM33 25.5C33 24.672 32.328 24 31.5 24C30.672 24 30 24.672 30 25.5C30 26.328 30.672 27 31.5 27C32.328 27 33 26.328 33 25.5ZM14.702 19H12.5C12.224 19 12 19.224 12 19.5V20.011C12 20.804 12.926 21 13.616 21L14.702 19Z" fill="#748B86"/>
</svg>
