<svg width="64" height="64" viewBox="0 0 64 64" fill="none" xmlns="http://www.w3.org/2000/svg">
<rect width="64" height="64" rx="32" fill="#F7FBF6"/>
<g clip-path="url(#clip0_448_6246)">
<path d="M27.1564 29.2652C27.5222 28.8994 27.9281 28.5977 28.3598 28.3594C30.7658 27.0336 33.851 27.7386 35.3978 30.0835L33.526 31.9543C32.9893 30.7301 31.6567 30.0335 30.3308 30.3302C29.8316 30.4418 29.3574 30.691 28.9698 31.0785L25.3829 34.6667C24.2937 35.7558 24.2937 37.5274 25.3829 38.6166C26.4722 39.7057 28.244 39.7057 29.3332 38.6166L30.4391 37.5108C31.445 37.9099 32.5234 38.0691 33.5885 37.9899L31.1475 40.4307C29.0549 42.5231 25.6621 42.5231 23.5695 40.4307C21.4768 38.3382 21.4768 34.9458 23.5695 32.8534L27.1564 29.2652ZM32.8534 23.5687L30.4124 26.0095C31.4767 25.9295 32.5559 26.0895 33.5618 26.4878L34.6669 25.3828C35.7561 24.2937 37.5279 24.2937 38.6172 25.3828C39.7064 26.4719 39.7064 28.2436 38.6172 29.3327L35.0294 32.9201C33.9369 34.0125 32.1626 34.0034 31.0792 32.9201C30.8266 32.6676 30.6091 32.3534 30.4733 32.0443L28.6015 33.915C28.7982 34.2134 29.0023 34.4709 29.2649 34.7334C29.9416 35.41 30.8033 35.9142 31.795 36.1533C33.0801 36.4625 34.4569 36.2916 35.6395 35.6392C36.0712 35.4008 36.477 35.0992 36.8429 34.7334L40.4298 31.146C42.5233 29.0535 42.5233 25.6611 40.4306 23.5687C38.338 21.4771 34.9461 21.4771 32.8534 23.5687Z" fill="#748B86"/>
</g>
<defs>
<clipPath id="clip0_448_6246">
<rect width="20" height="20" fill="white" transform="translate(22 22)"/>
</clipPath>
</defs>
</svg>
