<svg width="48" height="48" viewBox="0 0 48 48" fill="none" xmlns="http://www.w3.org/2000/svg">
<g clip-path="url(#clip0_776_6344)">
<path d="M19.1564 21.2652C19.5222 20.8994 19.9281 20.5977 20.3598 20.3594C22.7658 19.0336 25.851 19.7386 27.3978 22.0835L25.526 23.9543C24.9893 22.7301 23.6567 22.0335 22.3308 22.3302C21.8316 22.4418 21.3574 22.691 20.9698 23.0785L17.3829 26.6667C16.2937 27.7558 16.2937 29.5274 17.3829 30.6166C18.4722 31.7057 20.244 31.7057 21.3332 30.6166L22.4391 29.5108C23.445 29.9099 24.5234 30.0691 25.5885 29.9899L23.1475 32.4307C21.0549 34.5231 17.6621 34.5231 15.5695 32.4307C13.4768 30.3382 13.4768 26.9458 15.5695 24.8534L19.1564 21.2652ZM24.8534 15.5687L22.4124 18.0095C23.4767 17.9295 24.5559 18.0895 25.5618 18.4878L26.6669 17.3828C27.7561 16.2937 29.5279 16.2937 30.6172 17.3828C31.7064 18.4719 31.7064 20.2436 30.6172 21.3327L27.0294 24.9201C25.9369 26.0125 24.1626 26.0034 23.0792 24.9201C22.8266 24.6676 22.6091 24.3534 22.4733 24.0443L20.6015 25.915C20.7982 26.2134 21.0023 26.4709 21.2649 26.7334C21.9416 27.41 22.8033 27.9142 23.795 28.1533C25.0801 28.4625 26.4569 28.2916 27.6395 27.6392C28.0712 27.4008 28.477 27.0992 28.8429 26.7334L32.4298 23.146C34.5233 21.0535 34.5233 17.6611 32.4306 15.5687C30.338 13.4771 26.9461 13.4771 24.8534 15.5687Z" fill="#748B86"/>
</g>
<defs>
<clipPath id="clip0_776_6344">
<rect width="20" height="20" fill="white" transform="translate(14 14)"/>
</clipPath>
</defs>
</svg>
