<svg width="48" height="48" viewBox="0 0 48 48" fill="none" xmlns="http://www.w3.org/2000/svg">
<path d="M32.759 32.498C30.417 28.835 27.184 25.54 27.016 21H25C25.173 26.212 28.512 29.539 30.953 33.356C31.096 33.658 30.885 34 30.576 34H29.312L24.578 27H21.058C21.931 25.335 22.908 23.586 22.994 21H20.984C20.815 25.543 17.563 28.864 15.241 32.498C15.076 32.845 15 33.205 15 33.555C15 34.838 16.023 36 17.423 36H30.576C31.976 36 33 34.838 33 33.554C33 33.204 32.924 32.845 32.759 32.498ZM28 17C28 18.105 27.104 19 26 19C24.896 19 24 18.105 24 17C24 15.895 24.896 15 26 15C27.104 15 28 15.895 28 17ZM23 15.5C23 16.329 22.328 17 21.5 17C20.672 17 20 16.329 20 15.5C20 14.671 20.672 14 21.5 14C22.328 14 23 14.671 23 15.5ZM23 19C23 19.552 22.553 20 22 20C21.447 20 21 19.552 21 19C21 18.448 21.447 18 22 18C22.553 18 23 18.448 23 19ZM26 13C26 13.552 25.553 14 25 14C24.447 14 24 13.552 24 13C24 12.448 24.447 12 25 12C25.553 12 26 12.448 26 13Z" fill="#748B86"/>
</svg>
