<svg width="64" height="64" viewBox="0 0 64 64" fill="none" xmlns="http://www.w3.org/2000/svg">
<rect width="64" height="64" rx="32" fill="#F7FBF6"/>
<path d="M40.759 40.498C38.417 36.835 35.184 33.54 35.016 29H33C33.173 34.212 36.512 37.539 38.953 41.356C39.096 41.658 38.885 42 38.576 42H37.312L32.578 35H29.058C29.931 33.335 30.908 31.586 30.994 29H28.984C28.815 33.543 25.563 36.864 23.241 40.498C23.076 40.845 23 41.205 23 41.555C23 42.838 24.023 44 25.423 44H38.576C39.976 44 41 42.838 41 41.554C41 41.204 40.924 40.845 40.759 40.498ZM36 25C36 26.105 35.104 27 34 27C32.896 27 32 26.105 32 25C32 23.895 32.896 23 34 23C35.104 23 36 23.895 36 25ZM31 23.5C31 24.329 30.328 25 29.5 25C28.672 25 28 24.329 28 23.5C28 22.671 28.672 22 29.5 22C30.328 22 31 22.671 31 23.5ZM31 27C31 27.552 30.553 28 30 28C29.447 28 29 27.552 29 27C29 26.448 29.447 26 30 26C30.553 26 31 26.448 31 27ZM34 21C34 21.552 33.553 22 33 22C32.447 22 32 21.552 32 21C32 20.448 32.447 20 33 20C33.553 20 34 20.448 34 21Z" fill="#748B86"/>
</svg>
