<svg width="48" height="48" viewBox="0 0 48 48" fill="none" xmlns="http://www.w3.org/2000/svg">
<path d="M31.4167 24.1526V21.7432C30.1492 21.3042 29.3507 21.1821 28.9467 20.2368C28.5426 19.2895 29.0225 18.6453 29.5967 17.4737L27.8438 15.7695C26.6468 16.3221 25.9773 16.7947 24.999 16.4011C24.024 16.0074 23.8973 15.2253 23.4488 14H20.9679C20.5216 15.2189 20.3938 16.0074 19.4177 16.4C18.4427 16.7937 17.7808 16.3263 16.5728 15.7684L14.8211 17.4726C15.392 18.6411 15.8752 19.2874 15.4711 20.2358C15.0648 21.1842 14.2545 21.3084 13 21.7421V24.1516C14.2513 24.5853 15.0659 24.7105 15.47 25.6579C15.8773 26.6137 15.3823 27.2726 14.82 28.4211L16.5728 30.1253C17.7721 29.5726 18.4405 29.1 19.4166 29.4937C20.3916 29.8863 20.5205 30.6705 20.9679 31.8937H23.4477C23.894 30.6747 24.0218 29.8884 25.0044 29.4916C25.9729 29.1 26.6316 29.5663 27.8428 30.1253L29.5956 28.4211C29.0268 27.2558 28.5404 26.6074 28.9445 25.6579C29.3497 24.7116 30.1643 24.5853 31.4167 24.1526ZM22.2083 25.9305C20.514 25.9305 19.1392 24.5947 19.1392 22.9474C19.1392 21.3 20.514 19.9642 22.2083 19.9642C23.9027 19.9642 25.2774 21.3 25.2774 22.9474C25.2774 24.5947 23.9027 25.9305 22.2083 25.9305ZM39 30.3568V29.2232C38.4042 29.0168 38.0283 28.9589 37.8376 28.5147C37.6469 28.0684 37.8733 27.7663 38.1431 27.2137L37.3176 26.4116C36.7543 26.6726 36.439 26.8937 35.9797 26.7095C35.5203 26.5253 35.4608 26.1568 35.2495 25.58H34.0838C33.8737 26.1537 33.813 26.5242 33.3537 26.7095C32.8943 26.8947 32.5834 26.6747 32.0158 26.4116L31.1903 27.2137C31.4589 27.7642 31.6864 28.0684 31.4958 28.5147C31.3051 28.9611 30.9237 29.0189 30.3333 29.2232V30.3568C30.9227 30.56 31.3051 30.62 31.4958 31.0653C31.6875 31.5147 31.4546 31.8253 31.1903 32.3663L32.0158 33.1684C32.5802 32.9074 32.8954 32.6863 33.3537 32.8705C33.813 33.0547 33.8726 33.4242 34.0838 34H35.2495C35.4597 33.4263 35.5203 33.0558 35.9818 32.8695C36.4379 32.6853 36.7478 32.9053 37.3176 33.1684L38.1431 32.3663C37.8755 31.8179 37.6469 31.5116 37.8376 31.0663C38.0283 30.6211 38.4107 30.56 39 30.3568ZM34.6667 31.1926C33.8693 31.1926 33.2226 30.5642 33.2226 29.7895C33.2226 29.0147 33.8693 28.3863 34.6667 28.3863C35.464 28.3863 36.1108 29.0147 36.1108 29.7895C36.1108 30.5642 35.464 31.1926 34.6667 31.1926Z" fill="#748B86"/>
</svg>
