<svg width="64" height="64" viewBox="0 0 64 64" fill="none" xmlns="http://www.w3.org/2000/svg">
<rect width="64" height="64" rx="32" fill="#F7FBF6"/>
<path d="M39.4167 32.1526V29.7432C38.1492 29.3042 37.3507 29.1821 36.9467 28.2368C36.5426 27.2895 37.0225 26.6453 37.5967 25.4737L35.8438 23.7695C34.6468 24.3221 33.9773 24.7947 32.999 24.4011C32.024 24.0074 31.8973 23.2253 31.4488 22H28.9679C28.5216 23.2189 28.3938 24.0074 27.4177 24.4C26.4427 24.7937 25.7808 24.3263 24.5728 23.7684L22.8211 25.4726C23.392 26.6411 23.8752 27.2874 23.4711 28.2358C23.0648 29.1842 22.2545 29.3084 21 29.7421V32.1516C22.2513 32.5853 23.0659 32.7105 23.47 33.6579C23.8773 34.6137 23.3823 35.2726 22.82 36.4211L24.5728 38.1253C25.7721 37.5726 26.4405 37.1 27.4166 37.4937C28.3916 37.8863 28.5205 38.6705 28.9679 39.8937H31.4477C31.894 38.6747 32.0218 37.8884 33.0044 37.4916C33.9729 37.1 34.6316 37.5663 35.8428 38.1253L37.5956 36.4211C37.0268 35.2558 36.5404 34.6074 36.9445 33.6579C37.3497 32.7116 38.1643 32.5853 39.4167 32.1526ZM30.2083 33.9305C28.514 33.9305 27.1392 32.5947 27.1392 30.9474C27.1392 29.3 28.514 27.9642 30.2083 27.9642C31.9027 27.9642 33.2774 29.3 33.2774 30.9474C33.2774 32.5947 31.9027 33.9305 30.2083 33.9305ZM47 38.3568V37.2232C46.4042 37.0168 46.0283 36.9589 45.8376 36.5147C45.6469 36.0684 45.8733 35.7663 46.1431 35.2137L45.3176 34.4116C44.7543 34.6726 44.439 34.8937 43.9797 34.7095C43.5203 34.5253 43.4608 34.1568 43.2495 33.58H42.0838C41.8737 34.1537 41.813 34.5242 41.3537 34.7095C40.8943 34.8947 40.5834 34.6747 40.0158 34.4116L39.1903 35.2137C39.4589 35.7642 39.6864 36.0684 39.4958 36.5147C39.3051 36.9611 38.9237 37.0189 38.3333 37.2232V38.3568C38.9227 38.56 39.3051 38.62 39.4958 39.0653C39.6875 39.5147 39.4546 39.8253 39.1903 40.3663L40.0158 41.1684C40.5802 40.9074 40.8954 40.6863 41.3537 40.8705C41.813 41.0547 41.8726 41.4242 42.0838 42H43.2495C43.4597 41.4263 43.5203 41.0558 43.9818 40.8695C44.4379 40.6853 44.7478 40.9053 45.3176 41.1684L46.1431 40.3663C45.8755 39.8179 45.6469 39.5116 45.8376 39.0663C46.0283 38.6211 46.4107 38.56 47 38.3568ZM42.6667 39.1926C41.8693 39.1926 41.2226 38.5642 41.2226 37.7895C41.2226 37.0147 41.8693 36.3863 42.6667 36.3863C43.464 36.3863 44.1108 37.0147 44.1108 37.7895C44.1108 38.5642 43.464 39.1926 42.6667 39.1926Z" fill="#748B86"/>
</svg>
