<svg width="48" height="48" viewBox="0 0 48 48" fill="none" xmlns="http://www.w3.org/2000/svg">
<g clip-path="url(#clip0_776_6338)">
<path fill-rule="evenodd" clip-rule="evenodd" d="M36 36H12V34H13C15.996 29.096 16.945 21.015 17 18H24C24.054 20.94 25.005 28.982 28 34H29.742L29.1 32.907C27.905 30.762 27.152 28.361 26.599 25.983C26.867 24.324 26.984 22.877 27 22H32C32.04 24.205 32.753 30.236 35 34H36V36ZM17.713 30H19.713L18.546 33L22.713 28H20.713L21.88 25L17.713 30ZM30.637 17.085C30.875 16.563 31.396 16.2 32 16.2C32.604 16.2 33.125 16.563 33.363 17.085C33.517 17.005 33.691 16.96 33.875 16.96C34.496 16.96 35 17.471 35 18.1C35 18.729 34.496 19.24 33.875 19.24C33.691 19.24 33.517 19.195 33.363 19.115C33.125 19.637 32.604 20 32 20C31.396 20 30.875 19.637 30.637 19.115C30.483 19.195 30.309 19.24 30.125 19.24C29.504 19.24 29 18.729 29 18.1C29 17.471 29.504 16.96 30.125 16.96C30.309 16.96 30.483 17.005 30.637 17.085ZM20 17C20.198 14.818 21.785 13 23.5 13C23.746 13 23.978 13.059 24.183 13.164C24.499 12.477 25.194 12 26 12C26.806 12 27.501 12.477 27.817 13.164C28.022 13.059 28.254 13 28.5 13C29.328 13 30 13.672 30 14.5C30 15.328 29.328 16 28.5 16C28.254 16 28.022 15.941 27.817 15.836C27.501 16.523 26.806 17 26 17C23.655 17 22.278 14.049 21 17H20Z" fill="#748B86"/>
</g>
<defs>
<clipPath id="clip0_776_6338">
<rect width="24" height="24" fill="white" transform="translate(12 12)"/>
</clipPath>
</defs>
</svg>
