<svg width="64" height="64" viewBox="0 0 64 64" fill="none" xmlns="http://www.w3.org/2000/svg">
<rect width="64" height="64" rx="32" fill="#F7FBF6"/>
<g clip-path="url(#clip0_448_6234)">
<path fill-rule="evenodd" clip-rule="evenodd" d="M44 44H20V42H21C23.996 37.096 24.945 29.015 25 26H32C32.054 28.94 33.005 36.982 36 42H37.742L37.1 40.907C35.905 38.762 35.152 36.361 34.599 33.983C34.867 32.324 34.984 30.877 35 30H40C40.04 32.205 40.753 38.236 43 42H44V44ZM25.713 38H27.713L26.546 41L30.713 36H28.713L29.88 33L25.713 38ZM38.637 25.085C38.875 24.563 39.396 24.2 40 24.2C40.604 24.2 41.125 24.563 41.363 25.085C41.517 25.005 41.691 24.96 41.875 24.96C42.496 24.96 43 25.471 43 26.1C43 26.729 42.496 27.24 41.875 27.24C41.691 27.24 41.517 27.195 41.363 27.115C41.125 27.637 40.604 28 40 28C39.396 28 38.875 27.637 38.637 27.115C38.483 27.195 38.309 27.24 38.125 27.24C37.504 27.24 37 26.729 37 26.1C37 25.471 37.504 24.96 38.125 24.96C38.309 24.96 38.483 25.005 38.637 25.085ZM28 25C28.198 22.818 29.785 21 31.5 21C31.746 21 31.978 21.059 32.183 21.164C32.499 20.477 33.194 20 34 20C34.806 20 35.501 20.477 35.817 21.164C36.022 21.059 36.254 21 36.5 21C37.328 21 38 21.672 38 22.5C38 23.328 37.328 24 36.5 24C36.254 24 36.022 23.941 35.817 23.836C35.501 24.523 34.806 25 34 25C31.655 25 30.278 22.049 29 25H28Z" fill="#748B86"/>
</g>
<defs>
<clipPath id="clip0_448_6234">
<rect width="24" height="24" fill="white" transform="translate(20 20)"/>
</clipPath>
</defs>
</svg>
