<svg width="48" height="48" viewBox="0 0 48 48" fill="none" xmlns="http://www.w3.org/2000/svg">
<path d="M28 18C24.348 23.397 22 26.774 22 30.056C22 33.339 24.684 36 28 36C31.316 36 34 33.339 34 30.056C34 26.774 31.652 23.397 28 18ZM27.979 21.84C28.33 22.383 28.75 23.33 28.75 24.33C28.75 27.261 25.75 27.741 25.75 25.957C25.75 24.733 27.242 22.924 27.979 21.84ZM20.004 30C20.025 26.727 21.822 23.627 24.652 19.39C23.605 17.321 22.012 14.973 20 12C16.348 17.397 14 20.774 14 24.056C14 27.339 16.684 30 20 30H20.004ZM17.75 19.958C17.75 18.733 19.242 16.925 19.979 15.84C20.33 16.383 20.75 17.33 20.75 18.33C20.75 21.261 17.75 21.741 17.75 19.958Z" fill="#748B86"/>
</svg>
