<svg width="64" height="64" viewBox="0 0 64 64" fill="none" xmlns="http://www.w3.org/2000/svg">
<rect width="64" height="64" rx="32" fill="#F7FBF6"/>
<path d="M36 26C32.348 31.397 30 34.774 30 38.056C30 41.339 32.684 44 36 44C39.316 44 42 41.339 42 38.056C42 34.774 39.652 31.397 36 26ZM35.979 29.84C36.33 30.383 36.75 31.33 36.75 32.33C36.75 35.261 33.75 35.741 33.75 33.957C33.75 32.733 35.242 30.924 35.979 29.84ZM28.004 38C28.025 34.727 29.822 31.627 32.652 27.39C31.605 25.321 30.012 22.973 28 20C24.348 25.397 22 28.774 22 32.056C22 35.339 24.684 38 28 38H28.004ZM25.75 27.958C25.75 26.733 27.242 24.925 27.979 23.84C28.33 24.383 28.75 25.33 28.75 26.33C28.75 29.261 25.75 29.741 25.75 27.958Z" fill="#748B86"/>
</svg>
