<svg width="48" height="48" viewBox="0 0 48 48" fill="none" xmlns="http://www.w3.org/2000/svg">
<path fill-rule="evenodd" clip-rule="evenodd" d="M15 30H13C12.448 30 12 29.552 12 29V27H27V18H31.667C32.784 18 33.267 18.576 33.603 19.107C34.197 20.047 35.139 21.539 35.712 22.485C35.9 22.797 36 23.155 36 23.52V28C36 29.121 35.272 30 34 30H33C33 31.656 31.656 33 30 33C28.344 33 27 31.656 27 30H21C21 31.656 19.656 33 18 33C16.344 33 15 31.656 15 30ZM18 28.8C18.662 28.8 19.2 29.338 19.2 30C19.2 30.662 18.662 31.2 18 31.2C17.338 31.2 16.8 30.662 16.8 30C16.8 29.338 17.338 28.8 18 28.8ZM30 28.8C30.662 28.8 31.2 29.338 31.2 30C31.2 30.662 30.662 31.2 30 31.2C29.338 31.2 28.8 30.662 28.8 30C28.8 29.338 29.338 28.8 30 28.8ZM26 26H12V16C12 15.448 12.448 15 13 15H25C25.552 15 26 15.448 26 16V26ZM29 20V23H33.715L32.288 20.504C32.11 20.192 31.779 20 31.42 20H29Z" fill="#748B86"/>
</svg>
