<svg width="64" height="64" viewBox="0 0 64 64" fill="none" xmlns="http://www.w3.org/2000/svg">
<rect width="64" height="64" rx="32" fill="#F7FBF6"/>
<path fill-rule="evenodd" clip-rule="evenodd" d="M23 38H21C20.448 38 20 37.552 20 37V35H35V26H39.667C40.784 26 41.267 26.576 41.603 27.107C42.197 28.047 43.139 29.539 43.712 30.485C43.9 30.797 44 31.155 44 31.52V36C44 37.121 43.272 38 42 38H41C41 39.656 39.656 41 38 41C36.344 41 35 39.656 35 38H29C29 39.656 27.656 41 26 41C24.344 41 23 39.656 23 38ZM26 36.8C26.662 36.8 27.2 37.338 27.2 38C27.2 38.662 26.662 39.2 26 39.2C25.338 39.2 24.8 38.662 24.8 38C24.8 37.338 25.338 36.8 26 36.8ZM38 36.8C38.662 36.8 39.2 37.338 39.2 38C39.2 38.662 38.662 39.2 38 39.2C37.338 39.2 36.8 38.662 36.8 38C36.8 37.338 37.338 36.8 38 36.8ZM34 34H20V24C20 23.448 20.448 23 21 23H33C33.552 23 34 23.448 34 24V34ZM37 28V31H41.715L40.288 28.504C40.11 28.192 39.779 28 39.42 28H37Z" fill="#748B86"/>
</svg>
