<svg width="64" height="64" viewBox="0 0 64 64" fill="none" xmlns="http://www.w3.org/2000/svg">
<rect width="64" height="64" rx="32" fill="#F7FBF6"/>
<path fill-rule="evenodd" clip-rule="evenodd" d="M26 32C26 29.3453 26.8657 28.7431 29.4286 25.5833H34.5714C37.208 28.8375 38 29.3261 38 32V41.1667C38 42.1796 37.2329 43 36.2857 43H27.7143C26.7671 43 26 42.1796 26 41.1667V32ZM36.2857 32H27.7143V39.3333H36.2857V32ZM32.8571 34.75H34.5714V36.5833H32.8571V38.4167H31.1429V36.5833H29.4286V34.75H31.1429V32.9167H32.8571V34.75ZM35.4286 24.6667H28.5714V21.9167C28.5714 21.4107 28.9554 21 29.4286 21H34.5714C35.0446 21 35.4286 21.4107 35.4286 21.9167V24.6667Z" fill="#748B86"/>
</svg>
