<svg width="48" height="48" viewBox="0 0 48 48" fill="none" xmlns="http://www.w3.org/2000/svg">
<path fill-rule="evenodd" clip-rule="evenodd" d="M18 24C18 21.3453 18.8657 20.7431 21.4286 17.5833H26.5714C29.208 20.8375 30 21.3261 30 24V33.1667C30 34.1796 29.2329 35 28.2857 35H19.7143C18.7671 35 18 34.1796 18 33.1667V24ZM28.2857 24H19.7143V31.3333H28.2857V24ZM24.8571 26.75H26.5714V28.5833H24.8571V30.4167H23.1429V28.5833H21.4286V26.75H23.1429V24.9167H24.8571V26.75ZM27.4286 16.6667H20.5714V13.9167C20.5714 13.4107 20.9554 13 21.4286 13H26.5714C27.0446 13 27.4286 13.4107 27.4286 13.9167V16.6667Z" fill="#748B86"/>
</svg>
