<svg width="64" height="64" viewBox="0 0 64 64" fill="none" xmlns="http://www.w3.org/2000/svg">
<rect width="64" height="64" rx="32" fill="#F7FBF6"/>
<g clip-path="url(#clip0_1104_11081)">
<path fill-rule="evenodd" clip-rule="evenodd" d="M32 20L30.204 21.961L27.833 20.724L26.825 23.172L24.168 22.808L24.072 25.448L21.449 26L22.272 28.513L20 29.916L21.649 32.001L20 34.084L22.272 35.487L21.449 38L24.072 38.553L24.168 41.192L26.825 40.829L27.833 43.277L30.204 42.04L32 44L33.797 42.04L36.167 43.277L37.177 40.829L39.833 41.192L39.929 38.553L42.552 38L41.728 35.487L44 34.084L42.351 32.001L44 29.916L41.728 28.513L42.552 26L39.929 25.448L39.833 22.808L37.177 23.172L36.167 20.724L33.797 21.961L32 20Z" fill="#748B86"/>
</g>
<defs>
<clipPath id="clip0_1104_11081">
<rect width="24" height="24" fill="white" transform="translate(20 20)"/>
</clipPath>
</defs>
</svg>
