<svg width="48" height="48" viewBox="0 0 48 48" fill="none" xmlns="http://www.w3.org/2000/svg">
<g clip-path="url(#clip0_776_6357)">
<path fill-rule="evenodd" clip-rule="evenodd" d="M24 12L22.204 13.961L19.833 12.724L18.825 15.172L16.168 14.808L16.072 17.448L13.449 18L14.272 20.513L12 21.916L13.649 24.001L12 26.084L14.272 27.487L13.449 30L16.072 30.553L16.168 33.192L18.825 32.829L19.833 35.277L22.204 34.04L24 36L25.797 34.04L28.167 35.277L29.177 32.829L31.833 33.192L31.929 30.553L34.552 30L33.728 27.487L36 26.084L34.351 24.001L36 21.916L33.728 20.513L34.552 18L31.929 17.448L31.833 14.808L29.177 15.172L28.167 12.724L25.797 13.961L24 12Z" fill="#748B86"/>
</g>
<defs>
<clipPath id="clip0_776_6357">
<rect width="24" height="24" fill="white" transform="translate(12 12)"/>
</clipPath>
</defs>
</svg>
