<svg width="48" height="48" viewBox="0 0 48 48" fill="none" xmlns="http://www.w3.org/2000/svg">
<g clip-path="url(#clip0_776_6313)">
<path fill-rule="evenodd" clip-rule="evenodd" d="M25 36H23V30.874C22.194 30.666 21.487 30.213 20.961 29.6C20.359 29.857 19.696 30 19 30C16.24 30 14 27.76 14 25C14 23.578 14.595 22.293 15.55 21.383C15.202 20.839 15 20.193 15 19.5C15 17.622 16.483 16.087 18.341 16.004C19.164 13.672 21.388 12 24 12C26.612 12 28.836 13.672 29.659 16.004C31.517 16.087 33 17.622 33 19.5C33 20.193 32.798 20.839 32.45 21.383C33.405 22.293 34 23.578 34 25C34 27.76 31.76 30 29 30C28.304 30 27.641 29.857 27.039 29.6C26.513 30.213 25.806 30.666 25 30.874V36Z" fill="#748B86"/>
</g>
<defs>
<clipPath id="clip0_776_6313">
<rect width="24" height="24" fill="white" transform="translate(12 12)"/>
</clipPath>
</defs>
</svg>
