<svg width="64" height="64" viewBox="0 0 64 64" fill="none" xmlns="http://www.w3.org/2000/svg">
<rect width="64" height="64" rx="32" fill="#F7FBF6"/>
<g clip-path="url(#clip0_448_6210)">
<path fill-rule="evenodd" clip-rule="evenodd" d="M33 44H31V38.874C30.194 38.666 29.487 38.213 28.961 37.6C28.359 37.857 27.696 38 27 38C24.24 38 22 35.76 22 33C22 31.578 22.595 30.293 23.55 29.383C23.202 28.839 23 28.193 23 27.5C23 25.622 24.483 24.087 26.341 24.004C27.164 21.672 29.388 20 32 20C34.612 20 36.836 21.672 37.659 24.004C39.517 24.087 41 25.622 41 27.5C41 28.193 40.798 28.839 40.45 29.383C41.405 30.293 42 31.578 42 33C42 35.76 39.76 38 37 38C36.304 38 35.641 37.857 35.039 37.6C34.513 38.213 33.806 38.666 33 38.874V44Z" fill="#748B86"/>
</g>
<defs>
<clipPath id="clip0_448_6210">
<rect width="24" height="24" fill="white" transform="translate(20 20)"/>
</clipPath>
</defs>
</svg>
