<svg width="48" height="48" viewBox="0 0 48 48" fill="none" xmlns="http://www.w3.org/2000/svg">
<g clip-path="url(#clip0_776_6301)">
<path d="M28.855 24.8683C28.26 24.9425 27.665 24.7375 27.2417 24.3133L23.3333 20.395C22.935 19.9958 22.7308 19.4433 22.7733 18.8817C22.8875 17.3708 22.4042 16.1767 21.5092 15.2817C20.6517 14.4242 19.5308 14 18.4075 14C17.985 14 17.5617 14.06 17.1525 14.18L19.7942 16.8217C20.0808 18.1458 18.1617 20.0867 16.8225 19.7942L14.1808 17.1525C14.06 17.5625 14 17.9858 14 18.41C14 19.5325 14.425 20.6525 15.2808 21.5108C16.2267 22.4575 17.4975 22.8825 18.7358 22.7858C19.3883 22.7358 20.0333 22.9742 20.4967 23.4383L24.3133 27.2625C24.7333 27.6833 24.9383 28.2767 24.8658 28.8667C24.535 31.595 26.6683 34 29.4167 34C31.9475 34 34 31.9483 34 29.4167C34 26.6417 31.5583 24.5275 28.855 24.8683ZM30.0858 31.9167L27.5867 31.2458L26.9167 28.7475L28.7475 26.9167L31.2467 27.5875L31.9167 30.0867L30.0858 31.9167Z" fill="#748B86"/>
</g>
<defs>
<clipPath id="clip0_776_6301">
<rect width="20" height="20" fill="white" transform="translate(14 14)"/>
</clipPath>
</defs>
</svg>
