<svg width="64" height="64" viewBox="0 0 64 64" fill="none" xmlns="http://www.w3.org/2000/svg">
<rect width="64" height="64" rx="32" fill="#F7FBF6"/>
<g clip-path="url(#clip0_448_6186)">
<path d="M36.855 32.8683C36.26 32.9425 35.665 32.7375 35.2417 32.3133L31.3333 28.395C30.935 27.9958 30.7308 27.4433 30.7733 26.8817C30.8875 25.3708 30.4042 24.1767 29.5092 23.2817C28.6517 22.4242 27.5308 22 26.4075 22C25.985 22 25.5617 22.06 25.1525 22.18L27.7942 24.8217C28.0808 26.1458 26.1617 28.0867 24.8225 27.7942L22.1808 25.1525C22.06 25.5625 22 25.9858 22 26.41C22 27.5325 22.425 28.6525 23.2808 29.5108C24.2267 30.4575 25.4975 30.8825 26.7358 30.7858C27.3883 30.7358 28.0333 30.9742 28.4967 31.4383L32.3133 35.2625C32.7333 35.6833 32.9383 36.2767 32.8658 36.8667C32.535 39.595 34.6683 42 37.4167 42C39.9475 42 42 39.9483 42 37.4167C42 34.6417 39.5583 32.5275 36.855 32.8683ZM38.0858 39.9167L35.5867 39.2458L34.9167 36.7475L36.7475 34.9167L39.2467 35.5875L39.9167 38.0867L38.0858 39.9167Z" fill="#748B86"/>
</g>
<defs>
<clipPath id="clip0_448_6186">
<rect width="20" height="20" fill="white" transform="translate(22 22)"/>
</clipPath>
</defs>
</svg>
