<svg width="24" height="25" viewBox="0 0 24 25" fill="none" xmlns="http://www.w3.org/2000/svg">
<path fill-rule="evenodd" clip-rule="evenodd" d="M3 3.5H21V21.5H3V3.5ZM11.8594 6.43203C11.7539 6.46367 11.5641 6.54453 11.4375 6.61133C11.3109 6.67812 11.1246 6.81172 11.0227 6.91016C10.9242 7.00508 10.7766 7.18437 10.6957 7.30391C10.6184 7.42695 10.5234 7.62734 10.4883 7.75391C10.4496 7.88047 10.4039 8.08437 10.3828 8.21094C10.3652 8.3375 10.3477 8.87891 10.3477 9.41328V10.3906H9.08203V12.5H10.3477V18.7227H12.9141V12.5C14.2781 12.5 14.6719 12.4895 14.6719 12.4719C14.6719 12.4578 14.707 12.2012 14.7457 11.9023C14.7844 11.6035 14.8371 11.1395 14.8582 10.8758L14.9004 10.3906H12.9492L12.9457 8.86133C13.1004 8.64336 13.2059 8.55195 13.2762 8.5168C13.3887 8.46758 13.5152 8.45703 14.1621 8.45703H14.918V6.27734C12.9281 6.28437 12.4289 6.29844 12.2812 6.33008C12.1547 6.35117 11.9648 6.39688 11.8594 6.43203Z" fill="#748B86"/>
</svg>
