<svg width="64" height="64" viewBox="0 0 64 64" fill="none" xmlns="http://www.w3.org/2000/svg">
<path fill-rule="evenodd" clip-rule="evenodd" d="M28.9623 6.25465L28.9623 6.25466C29.3977 6.43684 29.833 6.61895 30.2051 6.88472C31.2311 7.61593 31.7638 8.66867 31.7702 9.91121C31.7883 13.8421 31.7851 17.7731 31.7724 21.704C31.767 23.2535 30.6654 24.7585 29.1876 25.302C29.1274 25.3239 29.0628 25.3348 28.9795 25.3488C28.933 25.3566 28.8807 25.3654 28.82 25.3777C28.82 25.158 28.8212 24.9426 28.8224 24.73C28.8249 24.2751 28.8273 23.8333 28.8179 23.3915C28.8099 23.0172 28.8112 22.6415 28.8126 22.2658V22.2657C28.816 21.3458 28.8194 20.4254 28.6847 19.5248C28.2713 16.7608 25.563 14.6542 22.7023 14.7258C19.6711 14.8026 17.0778 16.9578 16.7955 19.7935C16.6826 20.9294 16.6847 22.0763 16.6867 23.2228V23.2228C16.6876 23.7324 16.6885 24.2418 16.6794 24.7502C16.6772 24.8836 16.6779 25.0165 16.6786 25.1524V25.1524C16.679 25.2214 16.6794 25.2912 16.6794 25.3621C15.3199 25.0987 14.0339 23.7109 13.8197 22.3003C13.7633 21.927 13.7334 21.5463 13.7324 21.1688C13.7267 17.9965 13.7277 14.8242 13.7288 11.6519V11.6516L13.7292 10.462C13.7292 8.12311 14.7307 6.79448 17.0342 6.07053C17.0537 6.06418 17.0689 6.04487 17.0839 6.02567C17.091 6.01664 17.098 6.00763 17.1055 6H28.3768H28.3779C28.5688 6.09004 28.7656 6.17236 28.9623 6.25465ZM48.5818 6C48.6609 6.02566 48.7401 6.05048 48.8194 6.0753L48.8194 6.07531C48.9901 6.12874 49.1606 6.18213 49.3286 6.24374C50.8991 6.82249 51.9741 8.25483 51.9827 9.89669C52.0029 13.8297 52.0093 17.7627 51.9805 21.6957C51.9645 23.8053 50.2471 25.5281 48.0757 25.5602C44.6748 25.61 41.2707 25.6079 37.8699 25.5602C35.8029 25.5312 34.0844 23.8883 34.0151 21.8678C33.9582 20.214 33.9646 18.5586 33.9709 16.903V16.903C33.9734 16.264 33.9758 15.625 33.9746 14.9861C33.9738 14.5556 33.9711 14.1249 33.9685 13.6942V13.694C33.9608 12.4511 33.9531 11.2078 33.9895 9.96618C34.046 8.03806 35.1967 6.65342 37.09 6.10994C37.143 6.09439 37.192 6.06632 37.2411 6.0382C37.2641 6.02505 37.2871 6.01189 37.3105 6H48.5818ZM29.0043 28.3046C27.7003 28.0795 26.5229 28.8004 25.71 30.4132L25.709 30.4163V29.7069C25.709 28.8489 25.7098 27.9911 25.7107 27.1333C25.7129 24.9889 25.715 22.845 25.7036 20.701C25.6962 19.4917 25.1262 18.5675 23.9936 18.0572C22.9068 17.5677 21.8446 17.7046 20.9028 18.4348C20.0579 19.0903 19.8203 19.9926 19.8213 21.0122C19.8303 26.9404 19.8293 32.8681 19.8283 38.796C19.828 40.6486 19.8277 42.5013 19.8277 44.3539V44.9296C19.6967 44.8819 19.6701 44.8383 19.6583 44.7916C19.4837 44.063 19.3093 43.3345 19.1349 42.6061C18.74 40.9568 18.3452 39.3079 17.9483 37.6589C17.6798 36.545 16.999 35.7619 15.8568 35.4726C15.3771 35.351 14.8424 35.3851 14.334 35.4175C14.3174 35.4186 14.3008 35.4196 14.2843 35.4207C12.6243 35.5255 11.7112 36.7358 12.082 38.3175C12.3686 39.5422 12.6585 40.7661 12.9484 41.99C13.4045 43.9151 13.8605 45.8402 14.3034 47.7683C15.2922 52.0695 17.6319 55.624 20.6875 58.7853C20.8026 58.9035 21.0178 58.9917 21.1872 58.9917C26.9118 59.0031 32.6354 59.0031 38.36 58.9896C38.5315 58.9886 38.7723 58.8651 38.8639 58.7262C41.308 55.0037 42.8668 50.9411 43.1022 46.5351C43.2844 43.141 43.2651 39.7364 43.2458 36.3333C43.2408 35.4571 43.2359 34.581 43.2343 33.7052C43.2322 32.5021 42.5493 31.6142 41.3847 31.162C40.2181 30.7088 39.1452 30.9432 38.2555 31.7885C38.0203 32.0117 37.8423 32.2931 37.6705 32.5645C37.5941 32.6853 37.5189 32.804 37.4405 32.9149C37.1848 30.7492 36.4954 29.8095 34.9271 29.5295C33.5847 29.2899 32.4681 29.9547 31.5966 31.5157C31.3611 29.5015 30.6196 28.5836 29.0043 28.3046Z" fill="#27A737"/>
</svg>
