<svg width="64" height="64" viewBox="0 0 64 64" fill="none" xmlns="http://www.w3.org/2000/svg">
<path d="M52.999 10.6105C52.1105 12.8954 51.1873 15.1079 50.3879 17.3657C49.1986 20.7261 48.4674 24.2013 48.22 27.769C48.0657 29.9886 47.9311 32.2101 47.843 34.4336C47.6709 38.7821 46.1927 42.5883 43.4875 45.9578C41.0812 48.9551 38.196 51.1988 34.5034 52.2562C29.675 53.6386 25.0414 53.0782 20.6117 50.7068C20.4979 50.6454 20.3901 50.5709 20.2436 50.4804C23.488 42.2965 27.7772 34.7194 32.8362 27.4853C31.0057 27.8777 25.5767 31.9173 22.4976 35.5967C19.6133 39.0437 17.681 42.9706 16.1938 47.3694C15.4171 46.3412 14.6671 45.4558 14.0359 44.4909C11.8373 41.1294 10.8063 37.4057 11.03 33.3792C11.3119 28.3113 13.4194 24.1168 17.0942 20.6889C22.5431 15.608 28.9438 12.4718 36.1439 10.9667C40.354 10.0873 44.6135 9.80963 48.9017 10.1266C50.1949 10.2221 51.4822 10.4002 52.7724 10.5451C52.8664 10.5552 52.9565 10.5974 53 10.6105H52.999Z" fill="#27A737"/>
</svg>
