<svg width="64" height="64" viewBox="0 0 64 64" fill="none" xmlns="http://www.w3.org/2000/svg">
<path fill-rule="evenodd" clip-rule="evenodd" d="M48.3814 31.6511C48.3814 32.5333 48.3812 33.4155 48.3809 34.2977V34.2977V34.2978V34.2978C48.3802 36.9436 48.3795 39.5893 48.3852 42.2344C48.3862 42.8449 48.2734 43.3946 47.7947 43.8216C47.4163 44.1582 46.9672 44.2657 46.475 44.2647C45.7804 44.264 45.0858 44.2646 44.3913 44.2652C43.2105 44.2662 42.0297 44.2672 40.8486 44.2618C39.5319 44.2561 38.8544 43.5781 38.8524 42.2677C38.849 39.3909 38.8495 36.514 38.8501 33.6372C38.8503 32.559 38.8505 31.4807 38.8505 30.4025V20.9109C38.8505 20.2471 38.8066 20.2043 38.1597 20.2033C37.8712 20.2033 37.5827 20.2037 37.2942 20.2041H37.2939C36.6447 20.2049 35.9954 20.2057 35.3465 20.2024C34.4778 20.1976 33.8405 19.7821 33.5528 19.046C33.2757 18.3356 33.463 17.5996 34.0889 17.0281C36.7961 14.5594 39.5041 12.0925 42.218 9.6324C43.1516 8.78604 44.2839 8.79079 45.2156 9.63715C47.9046 12.0783 50.5888 14.5242 53.272 16.971C53.9591 17.5977 54.1607 18.3147 53.8731 19.0555C53.5874 19.7925 52.9318 20.2005 52.0221 20.2033C51.3654 20.2052 50.7087 20.2046 50.0517 20.204C49.7231 20.2037 49.3944 20.2033 49.0656 20.2033C48.4416 20.2033 48.3824 20.2585 48.3814 20.8766C48.3801 23.2665 48.3806 25.6568 48.381 28.0469V28.0591V28.0592V28.0594V28.0595C48.3812 29.2564 48.3814 30.4533 48.3814 31.6501V31.6511ZM23.7372 40.7395V29.5894C23.7372 28.3056 24.515 27.5363 25.8184 27.5334C27.5977 27.5296 29.3779 27.5305 31.1572 27.5334C32.4759 27.5353 33.2642 28.317 33.2642 29.6284C33.2662 37.0459 33.2662 44.4644 33.2642 51.8819C33.2642 53.1943 32.4835 53.9845 31.1668 53.9912C29.3875 53.9998 27.6073 53.9998 25.828 53.9912C24.5016 53.9855 23.7372 53.2095 23.7372 51.8915V40.7414V40.7395ZM10.0016 42.65C10.0017 43.425 10.0018 44.2 10.0018 44.9751L10.0008 44.9741C10.0008 45.7492 10.0006 46.5242 10.0004 47.2992C10 48.8493 9.99958 50.3994 10.0008 51.9495C10.0018 53.18 10.771 53.9769 12.0085 53.9874C13.8518 54.0026 15.6951 54.0064 17.5384 53.9855C18.7434 53.9722 19.5269 53.162 19.5279 51.9656C19.5327 47.2992 19.5327 42.6338 19.5279 37.9674C19.5269 36.7654 18.729 35.9761 17.5308 35.9742C15.7037 35.9713 13.8757 35.9723 12.0486 35.9742C10.7682 35.9751 10.0028 36.7321 10.0018 37.9997C10.0012 39.5498 10.0014 41.0999 10.0016 42.65ZM43.6227 53.802C43.2417 53.802 42.8607 53.8027 42.4796 53.8035C41.5903 53.8053 40.7008 53.8071 39.8118 53.7991C38.9021 53.7905 38.2953 53.2361 38.2925 52.4478C38.2906 51.6585 38.8993 51.1031 39.808 51.0974C40.8875 51.0907 41.967 51.092 43.0468 51.0934H43.0469C43.4917 51.094 43.9365 51.0945 44.3814 51.0945C44.6809 51.0945 44.9804 51.0936 45.2799 51.0927C46.0286 51.0904 46.7772 51.088 47.5252 51.1003C48.2151 51.1107 48.7474 51.5054 48.9003 52.0683C49.0608 52.6589 48.8324 53.3103 48.2945 53.5785C48.0097 53.7202 47.66 53.7877 47.3379 53.7934C46.4372 53.8107 45.5366 53.8079 44.6359 53.805C44.2981 53.804 43.9604 53.8029 43.6227 53.8029V53.802ZM44.7951 46.899C44.4122 46.8994 44.0293 46.8998 43.6465 46.8998V46.9008C43.2542 46.9008 42.8618 46.8995 42.4694 46.8983C41.5279 46.8953 40.5865 46.8924 39.6456 46.9065C38.8744 46.9179 38.3106 47.4942 38.2953 48.2207C38.28 48.9606 38.8113 49.5597 39.5949 49.5663C41.7783 49.5841 43.9623 49.5799 46.1465 49.5756C46.6456 49.5747 47.1446 49.5737 47.6437 49.573C48.1043 49.572 48.4741 49.3704 48.7245 48.9853C49.0054 48.5536 49.0283 48.0866 48.7952 47.634C48.5419 47.1414 48.1033 46.9046 47.552 46.9017C46.6333 46.897 45.7141 46.898 44.7951 46.899Z" fill="#27A737"/>
</svg>
