<svg width="64" height="64" viewBox="0 0 64 64" fill="none" xmlns="http://www.w3.org/2000/svg">
<path d="M32.0053 5.33337C46.72 5.33337 58.6667 17.28 58.6667 31.9947C58.6667 46.7067 46.72 58.6534 32.0053 58.6534C17.2933 58.6534 5.34668 46.7067 5.34668 31.9947C5.34668 17.28 17.2933 5.33337 32.0053 5.33337ZM42.7973 24.2854C42.1707 24.2854 37.7493 25.8214 32.0133 25.8214C26.2347 25.8214 21.9013 24.2854 21.2267 24.2854C20.2187 24.2854 19.3947 25.1067 19.3947 26.1174C19.3947 26.9654 19.9947 27.7147 20.8107 27.9014C22.4453 28.328 24.176 28.6827 25.496 29.3467C26.72 29.9627 27.576 30.856 27.576 32.3867C27.576 37.792 24.0427 42.84 22.6187 45.232C22.616 45.232 22.616 45.232 22.616 45.2347C22.4533 45.5147 22.3707 45.832 22.3707 46.152C22.3707 47.1627 23.192 47.984 24.2027 47.984C24.6933 47.984 25.1573 47.792 25.504 47.44C26.696 46.2427 29.0613 42.6827 30.1413 40.9627C30.6747 40.112 31.1947 39.3067 32.0213 39.304C32.8267 39.3067 33.3493 40.112 33.8853 40.9627C34.9653 42.6827 37.3253 46.2427 38.5173 47.44C38.864 47.792 39.328 47.984 39.8213 47.984C40.832 47.984 41.6533 47.1627 41.6533 46.152C41.6533 45.8347 41.5707 45.52 41.392 45.2107C41.392 45.208 41.392 45.208 41.3893 45.2054C39.9333 42.7547 36.448 37.7974 36.448 32.3867C36.448 30.7627 37.4293 29.8374 38.7173 29.224C40.1013 28.5654 41.8293 28.2587 43.2 27.904C44.0267 27.7147 44.6293 26.9654 44.6293 26.1174C44.6293 25.1067 43.8053 24.2854 42.7973 24.2854ZM32.048 15.984C29.7147 15.984 27.8187 17.8854 27.8187 20.232C27.8187 22.576 29.7147 24.4774 32.048 24.4774C34.384 24.4774 36.2773 22.576 36.2773 20.232C36.2773 17.8854 34.384 15.984 32.048 15.984Z" fill="#27A737"/>
</svg>
