<svg width="64" height="64" viewBox="0 0 64 64" fill="none" xmlns="http://www.w3.org/2000/svg">
<path d="M36.1197 55.8C36.1197 58.1184 34.2337 60 31.9045 60C29.5753 60 27.6892 58.1184 27.6892 55.8C27.6892 53.4816 29.5753 51.6 31.9045 51.6C34.2337 51.6 36.1197 53.4816 36.1197 55.8ZM31.9045 3C29.2453 3 27.0871 5.1504 27.0871 7.8C27.0871 10.4496 29.2453 12.6 31.9045 12.6C34.5637 12.6 36.7219 10.4496 36.7219 7.8C36.7219 5.1504 34.5637 3 31.9045 3ZM55.9915 28.8C57.6511 28.8 59 30.1464 59 31.8C59 33.456 57.6511 34.8 55.9915 34.8C54.3295 34.8 52.9831 33.4584 52.9831 31.8C52.9831 30.1464 54.3295 28.8 55.9915 28.8ZM3 31.8C3 34.452 5.1582 36.6 7.81741 36.6C10.4766 36.6 12.6348 34.452 12.6348 31.8C12.6348 29.1504 10.4766 27 7.81741 27C5.1582 27 3 29.1504 3 31.8ZM48.7654 12.6C50.0926 12.6 51.1741 13.6776 51.1741 15C51.1741 16.3272 50.0926 17.4048 48.7654 17.4C47.4382 17.4 46.3567 16.3272 46.3567 15.0048C46.3567 13.6776 47.4382 12.6 48.7654 12.6ZM48.7654 45C50.7598 45 52.3785 46.6128 52.3785 48.6C52.3785 50.5872 50.7598 52.2024 48.7606 52.2C46.771 52.2 45.1524 50.5896 45.1524 48.6024C45.1524 46.6128 46.771 45 48.7654 45ZM15.0435 10.2C17.7027 10.2 19.8609 12.3504 19.8609 15C19.8609 17.6496 17.7027 19.8 15.0411 19.8C12.3843 19.8 10.2261 17.652 10.2261 15C10.2261 12.348 12.3843 10.2 15.0435 10.2ZM15.0435 43.8C17.7027 43.8 19.8609 45.9504 19.8609 48.6C19.8609 51.2496 17.7027 53.4 15.0411 53.4C12.3843 53.4 10.2261 51.252 10.2261 48.6C10.2261 45.948 12.3843 43.8 15.0435 43.8Z" fill="#27A737"/>
</svg>
