<svg width="24" height="25" viewBox="0 0 24 25" fill="none" xmlns="http://www.w3.org/2000/svg">
<path d="M3 3.5V21.5H21V3.5H3ZM18 5.5C18.552 5.5 19 5.948 19 6.5C19 7.052 18.552 7.5 18 7.5C17.448 7.5 17 7.052 17 6.5C17 5.948 17.448 5.5 18 5.5ZM12 7.5C14.761 7.5 17 9.739 17 12.5C17 15.261 14.761 17.5 12 17.5C9.239 17.5 7 15.261 7 12.5C7 9.739 9.239 7.5 12 7.5ZM12 9.5C11.2044 9.5 10.4413 9.81607 9.87868 10.3787C9.31607 10.9413 9 11.7044 9 12.5C9 13.2956 9.31607 14.0587 9.87868 14.6213C10.4413 15.1839 11.2044 15.5 12 15.5C12.7956 15.5 13.5587 15.1839 14.1213 14.6213C14.6839 14.0587 15 13.2956 15 12.5C15 11.7044 14.6839 10.9413 14.1213 10.3787C13.5587 9.81607 12.7956 9.5 12 9.5Z" fill="#748B86"/>
</svg>
