<svg width="24" height="24" viewBox="0 0 24 24" fill="none" xmlns="http://www.w3.org/2000/svg">
<g clip-path="url(#clip0_1739_14719)">
<path d="M18.9999 12H20.9999C20.9999 7.03 16.9699 3 11.9999 3V5C15.8699 5 18.9999 8.13 18.9999 12ZM14.9999 12H16.9999C16.9999 9.24 14.7599 7 11.9999 7V9C13.6599 9 14.9999 10.34 14.9999 12ZM13.2099 17.37C10.3799 15.93 8.0599 13.62 6.6199 10.78L9.1499 8.25L8.5399 3H3.0299C2.4499 13.18 10.8199 21.55 20.9999 20.97V15.46L15.7299 14.85L13.2099 17.37Z" fill="white"/>
</g>
<defs>
<clipPath id="clip0_1739_14719">
<rect width="24" height="24" fill="white"/>
</clipPath>
</defs>
</svg>
