<svg width="24" height="24" viewBox="0 0 24 24" fill="none" xmlns="http://www.w3.org/2000/svg">
<g clip-path="url(#clip0_1739_14735)">
<path d="M17.93 16L19.56 14.37C16.79 11.35 16.79 6.81 19.56 3.63L17.93 2C14.03 5.89 14.02 11.95 17.93 16ZM22.92 10.95C22.08 9.77 22.08 8.24 22.92 7.06L21.24 5.37C19.22 7.39 19.22 10.44 21.24 12.64L22.92 10.95ZM9 13C11.21 13 13 11.21 13 9C13 6.79 11.21 5 9 5C6.79 5 5 6.79 5 9C5 11.21 6.79 13 9 13ZM15.39 15.56C13.71 14.7 11.53 14 9 14C6.47 14 4.29 14.7 2.61 15.56C1.61 16.07 1 17.1 1 18.22V21H17V18.22C17 17.1 16.39 16.07 15.39 15.56Z" fill="white"/>
</g>
<defs>
<clipPath id="clip0_1739_14735">
<rect width="24" height="24" fill="white"/>
</clipPath>
</defs>
</svg>
