<svg width="64" height="64" viewBox="0 0 64 64" fill="none" xmlns="http://www.w3.org/2000/svg">
<rect width="64" height="64" rx="32" fill="#F7FBF6"/>
<path d="M23.9735 22.102C23.8143 22.1567 23.5897 22.2661 23.4672 22.3443C23.3447 22.4224 23.1733 22.5631 23.0875 22.6607C22.9977 22.7584 22.8874 22.9147 22.8425 23.0124C22.7935 23.11 22.7282 23.278 22.6996 23.3835C22.671 23.4929 22.6465 23.7469 22.6465 23.95C22.6465 24.1532 22.671 24.411 22.6996 24.5165C22.7282 24.6259 22.7935 24.79 22.8384 24.8877C22.8874 24.9854 23.0058 25.1534 23.1079 25.2588C23.2059 25.3682 23.3774 25.5089 23.4876 25.5792C23.5979 25.6495 23.798 25.7433 23.9327 25.7863C24.0674 25.8293 24.3165 25.88 24.4839 25.8918C24.6595 25.9035 24.9126 25.8957 25.0759 25.8683C25.2311 25.841 25.4802 25.7706 25.6271 25.716C25.7741 25.6573 26.0232 25.5284 26.1783 25.4268C26.3335 25.3292 26.603 25.1182 26.7704 24.9619C26.9419 24.8017 27.1624 24.5712 27.2603 24.4462L27.4441 24.2196L28.7711 24.2235V25.9426H30.2409V24.2235H31.1392V23.6765H30.2409C30.245 22.8561 30.2328 22.7819 30.1593 22.6881L30.0776 22.5826C28.9834 22.5787 28.9507 22.5865 28.865 22.6686C28.7792 22.7506 28.7711 22.7975 28.7711 23.2194V23.6765L27.4441 23.6804C27.2563 23.4499 27.1174 23.2898 27.0154 23.1765C26.9133 23.0592 26.6928 22.86 26.5254 22.7311C26.358 22.6021 26.1008 22.4263 25.9538 22.3443C25.8068 22.2661 25.5414 22.1528 25.3617 22.0981C25.0963 22.0161 24.9616 21.9966 24.6472 22.0005C24.3451 22.0044 24.1981 22.0239 23.9735 22.102ZM27.8728 26.5794C27.7952 26.6028 27.6564 26.6966 27.5666 26.7825C27.4767 26.8685 27.3788 27.0091 27.3502 27.0951C27.3216 27.1967 27.3012 27.5405 27.3012 28.0718V28.8923C26.8725 29.0954 26.5581 29.2595 26.3213 29.3885C26.0844 29.5174 25.7292 29.7323 25.5251 29.8612C25.3209 29.9901 25.0188 30.205 24.8514 30.3339C24.684 30.4668 24.4104 30.7051 24.2389 30.8692C24.0715 31.0294 23.8306 31.2872 23.704 31.4357C23.5775 31.5841 23.3692 31.8537 23.2386 32.0373C23.112 32.221 22.8997 32.5804 22.765 32.8383C22.6343 33.0961 22.4628 33.4907 22.3852 33.7173C22.3036 33.9439 22.2056 34.2956 22.1607 34.4987C22.1158 34.7019 22.0545 35.0535 22.03 35.2801C22.0014 35.5223 21.9933 35.9208 22.0055 36.2568C22.0218 36.5694 22.0586 36.9835 22.0953 37.175C22.1321 37.3703 22.2056 37.6868 22.2587 37.8782C22.3117 38.0735 22.422 38.3978 22.5036 38.601C22.5853 38.8041 22.7527 39.1675 22.8752 39.4019C23.0018 39.6402 23.2386 40.0348 23.4101 40.281C23.5816 40.5271 23.8306 40.8436 23.9694 40.9803C24.1083 41.117 24.3287 41.3046 24.4635 41.3944C24.5982 41.4882 24.8473 41.6249 25.0147 41.6992C25.1821 41.7734 25.472 41.8711 25.6598 41.918C25.9905 42 26.0518 42 29.506 42C32.9276 42 33.0255 41.9961 33.3359 41.918C33.5073 41.875 33.7605 41.7968 33.8952 41.7421C34.03 41.6914 34.2423 41.5898 34.3648 41.5194C34.4873 41.453 34.7363 41.2538 34.9201 41.0819C35.0997 40.91 35.3161 40.6716 35.4019 40.5544L35.5488 40.3396V34.7331H36.1613V32.682C35.8714 32.1975 35.6836 31.9162 35.557 31.7482C35.4304 31.5763 35.1242 31.2364 34.8752 30.9903C34.6261 30.7442 34.2994 30.4433 34.1402 30.3183C33.981 30.1972 33.7156 30.0097 33.5482 29.9003C33.3808 29.7909 33.1154 29.6307 32.9561 29.5369C32.7969 29.4471 32.458 29.2634 32.2008 29.1345L31.7312 28.9001L31.6904 27.1263C31.4781 26.7982 31.3883 26.72 31.2209 26.638L30.9963 26.5247C28.5342 26.5364 27.9667 26.552 27.8728 26.5794ZM36.0878 38.3158C36.1001 41.0858 36.1082 41.4061 36.1654 41.5116C36.2021 41.5741 36.2879 41.6796 36.3491 41.7421C36.4144 41.8007 36.5369 41.8867 36.6227 41.9258C36.7656 41.9961 36.9003 42 39.0602 42H41.3467C41.7224 41.7734 41.804 41.6914 41.8898 41.5312L42 41.3163V35.741C42 35.4649 41.7761 35.241 41.5 35.241H36.581C36.3043 35.241 36.0802 35.4657 36.081 35.7424L36.0878 38.3158ZM38.6968 24.8838C38.5825 24.9307 38.4764 25.0205 38.3825 25.1455C38.309 25.251 38.1701 25.4776 38.0803 25.6495C37.9946 25.8214 37.8721 26.1105 37.819 26.2942C37.7618 26.4739 37.6965 26.8099 37.672 27.0365C37.6475 27.2592 37.6271 27.9312 37.6271 28.5289V29.6151H40.2402C40.2157 26.7825 40.2116 26.6849 40.1218 26.3918C40.0728 26.2199 39.9626 25.9386 39.8768 25.7667C39.7952 25.5948 39.6482 25.3409 39.5543 25.2081C39.4318 25.0322 39.3379 24.9424 39.2113 24.8877C39.1133 24.8447 38.999 24.8095 38.9541 24.8095C38.9092 24.8095 38.7948 24.8408 38.6968 24.8838ZM37.0351 30.1777C36.9657 30.2089 36.8677 30.291 36.8187 30.3613C36.7288 30.4902 36.7288 30.4941 36.7288 32.6117V34.7331H41.1793L41.1834 30.4941C41.0323 30.2753 40.9343 30.2011 40.8527 30.1737C40.7506 30.1386 40.2035 30.1269 38.9337 30.123C37.4964 30.123 37.1331 30.1347 37.0351 30.1777Z" fill="#748B86"/>
</svg>
