<svg width="64" height="64" viewBox="0 0 64 64" fill="none" xmlns="http://www.w3.org/2000/svg">
<rect width="64" height="64" rx="32" fill="#F7FBF6"/>
<path fill-rule="evenodd" clip-rule="evenodd" d="M33.3366 22L35.0927 25.2C36.0585 26.961 36.878 28.4585 36.9171 28.5317C36.9854 28.6537 36.922 28.7707 33.361 35.3171L25.6341 35.2927L22 28.6585L22.1171 28.4634C22.1756 28.3561 22.9902 26.8732 23.922 25.1707C24.8537 23.4683 25.6244 22.0585 25.639 22.0341C25.6488 22.0146 27.3854 22 33.3366 22ZM28.3854 25.0976C28.239 25.1463 27.9512 25.2683 27.7512 25.3707C27.5512 25.4732 27.2634 25.6585 27.1171 25.7854C26.9707 25.9073 26.7415 26.1366 26.6146 26.2878C26.4829 26.439 26.2829 26.761 26.161 27C26.0439 27.239 25.9122 27.5707 25.8732 27.7317C25.8293 27.8927 25.7805 28.2098 25.7659 28.439C25.7512 28.6732 25.7659 29.0146 25.7951 29.2195C25.8293 29.4195 25.9073 29.7415 25.9756 29.9268C26.039 30.1122 26.1805 30.4098 26.2829 30.5854C26.3854 30.761 26.5902 31.0341 26.7317 31.1902C26.878 31.3463 27.1268 31.5707 27.2878 31.6829C27.4488 31.8 27.722 31.961 27.8976 32.0488C28.0732 32.1366 28.3805 32.2488 28.5805 32.3024C28.8341 32.3659 29.1122 32.3951 29.4829 32.3951C29.8634 32.3951 30.1317 32.3659 30.4098 32.2976C30.6244 32.239 30.9561 32.122 31.1415 32.0293C31.3317 31.9366 31.639 31.7415 31.8244 31.5951C32.0146 31.4488 32.2683 31.2 32.3902 31.0439C32.5122 30.8829 32.6829 30.6341 32.7659 30.4878C32.8488 30.3415 32.9756 30.0537 33.0439 29.8537C33.1122 29.6537 33.1902 29.3024 33.2146 29.0732C33.2488 28.7951 33.2439 28.522 33.2098 28.2439C33.1854 28.0146 33.1073 27.6634 33.039 27.4634C32.9707 27.2634 32.8244 26.9415 32.7171 26.7561C32.6 26.5561 32.3512 26.2537 32.122 26.0244C31.9024 25.8098 31.6049 25.561 31.4585 25.478C31.3122 25.3902 31.0488 25.2585 30.8732 25.1902C30.6976 25.1171 30.3951 25.0293 30.2049 24.9951C30.0098 24.9561 29.678 24.9317 29.4732 24.9317C29.2634 24.9366 28.9951 24.9561 28.8732 24.9756C28.7512 24.9951 28.5317 25.0488 28.3854 25.0976ZM29.4829 26.5902C29.6195 26.5854 29.8585 26.6195 30.0195 26.6585C30.1805 26.7024 30.4293 26.8049 30.5756 26.8927C30.7171 26.9805 30.922 27.1463 31.0341 27.2683C31.1415 27.3902 31.2976 27.6293 31.3805 27.8049C31.5024 28.0683 31.5317 28.2 31.5463 28.561C31.5659 28.8878 31.5463 29.0683 31.4829 29.2683C31.439 29.4146 31.3366 29.6341 31.2585 29.7561C31.1854 29.878 31.0293 30.0634 30.9122 30.1756C30.7951 30.2829 30.6244 30.4195 30.5317 30.478C30.439 30.5317 30.2293 30.6146 30.0683 30.6585C29.8585 30.722 29.6537 30.7366 29.361 30.7268C29.0195 30.7073 28.8878 30.678 28.6293 30.5512C28.4537 30.4683 28.2 30.2927 28.0634 30.1659C27.9268 30.0341 27.7463 29.7902 27.6634 29.6195C27.5756 29.4537 27.4829 29.1707 27.4488 28.9854C27.4049 28.7317 27.4049 28.5854 27.4488 28.3415C27.4829 28.1659 27.561 27.9073 27.6293 27.7659C27.6976 27.6293 27.8585 27.3951 27.9902 27.2537C28.122 27.1171 28.3366 26.9415 28.4634 26.8683C28.5951 26.7951 28.8244 26.7024 28.9707 26.6634C29.1171 26.6244 29.3512 26.5902 29.4829 26.5902Z" fill="#748B86"/>
<path d="M38.7854 28.9268C38.8049 28.9268 39.5366 29.3707 42 30.9024L41.9707 38.1122L41.0927 38.6585C40.6098 38.961 39.2098 39.8341 35.7512 42L29.5122 38.122L29.5073 36.9756H33.5073H34.5L37.3268 31.5756C37.3171 31.5659 37.6341 30.9659 38.0293 30.2439C38.4195 29.522 38.761 28.9268 38.7854 28.9268Z" fill="#748B86"/>
</svg>
