<svg width="64" height="64" viewBox="0 0 64 64" fill="none" xmlns="http://www.w3.org/2000/svg">
<rect width="64" height="64" rx="32" fill="#F7FBF6"/>
<path fill-rule="evenodd" clip-rule="evenodd" d="M24.2258 22C24.266 22 24.5566 22.0312 24.8786 22.067C25.2005 22.1027 25.6209 22.1652 25.8176 22.2054C26.0144 22.2455 26.3676 22.3393 26.6001 22.4107C26.8326 22.4866 27.1859 22.625 27.3826 22.7277C27.5794 22.8259 27.8611 22.9866 28.0087 23.0893C28.1562 23.1875 28.3977 23.3929 28.5408 23.5402C28.6838 23.6875 28.8672 23.8973 28.9387 24.0089C29.0147 24.1205 29.1578 24.3795 29.2562 24.5893C29.3501 24.7991 29.5111 25.1786 29.605 25.4375C29.6989 25.6964 29.8151 26.0491 29.8643 26.2188C29.9135 26.3884 29.9806 26.7232 30.0208 26.9554C30.0834 27.3214 30.1103 27.3973 30.222 27.5045C30.3428 27.6116 30.3875 27.625 31.0269 27.625L31.0403 28.5759C31.0537 29.4688 31.0627 29.5402 31.1745 29.8571C31.2416 30.0402 31.3623 30.2991 31.4428 30.433C31.5188 30.5625 31.7066 30.7812 31.8541 30.9196C32.0062 31.058 32.2476 31.2232 32.4131 31.2991C32.6277 31.3973 32.7932 31.4375 33.0391 31.4554C33.3029 31.4688 33.4371 31.4554 33.6517 31.3795C33.8082 31.3259 34.0094 31.2366 34.0988 31.183C34.1927 31.125 34.3671 30.9777 34.4923 30.8527C34.6131 30.7321 34.7964 30.4821 34.8903 30.2991C34.9887 30.1161 35.1049 29.8259 35.1541 29.6562C35.2123 29.4286 35.2436 29.1071 35.2972 27.625H35.5208C35.6415 27.625 35.874 27.6518 36.035 27.6875C36.196 27.7188 36.4643 27.808 36.6387 27.8795C36.9114 27.9955 36.983 28.0089 37.1752 27.9777C37.296 27.9598 37.6358 27.942 37.922 27.942C38.2395 27.9375 38.5882 27.9643 38.7939 28.0089C38.9862 28.0491 39.2813 28.1384 39.4557 28.2098C39.6301 28.2813 39.9029 28.442 40.0683 28.5625C40.2382 28.6875 40.4618 28.9018 40.5781 29.0446C40.6898 29.183 40.8598 29.4598 40.9537 29.6562C41.0476 29.8527 41.1728 30.183 41.2309 30.3929C41.298 30.6429 41.3337 30.9018 41.3337 31.1518C41.3337 31.4821 41.3203 31.558 41.2175 31.7321C41.1549 31.8438 41.0297 31.9911 40.9447 32.067C40.8553 32.1384 40.7077 32.2277 40.6138 32.2545C40.5155 32.2857 40.35 32.3125 40.2382 32.3125C40.122 32.3125 39.9431 32.2679 39.8134 32.2054C39.6882 32.1518 39.5228 32.0357 39.4423 31.9509C39.3618 31.8661 39.2679 31.7411 39.2321 31.6652C39.1964 31.5893 39.1472 31.3438 39.1248 31.1205C39.098 30.8929 39.0354 30.5982 38.9862 30.4732C38.937 30.3438 38.8208 30.1473 38.7224 30.0357C38.6285 29.9241 38.5346 29.8438 38.5212 29.8571C38.5033 29.8705 38.5256 30.0089 38.5704 30.1696C38.6195 30.3705 38.6464 30.6339 38.6464 31.0402C38.6464 31.4821 38.624 31.7143 38.5525 32C38.4988 32.2098 38.4049 32.5089 38.235 32.9598L39.1919 35.1473C39.7195 36.3482 40.1577 37.3393 40.1622 37.3482C40.1667 37.3571 40.2829 37.3304 40.4171 37.2902C40.5512 37.2545 40.739 37.2232 40.8285 37.2232C40.9224 37.2232 41.1057 37.2634 41.2309 37.3125C41.3606 37.3616 41.5484 37.4777 41.6423 37.567C41.7407 37.6607 41.8569 37.8259 41.9061 37.9375C41.9687 38.0759 42 38.2366 42 38.4509C42 38.692 41.9776 38.8214 41.8927 39.0045C41.8301 39.1384 41.7094 39.308 41.6244 39.3884C41.5394 39.4643 41.0476 39.7366 40.5289 39.9955C40.0102 40.2545 39.3171 40.5714 38.9862 40.7009C38.6553 40.8304 38.1411 41.0179 37.846 41.1161C37.5508 41.2143 37.0366 41.3616 36.7057 41.442C36.3748 41.5268 35.8204 41.6473 35.4761 41.7098C35.1318 41.7723 34.4476 41.8616 33.9558 41.9107C33.4639 41.9598 32.8155 42 32.5115 42C32.2119 42 31.6395 41.9688 31.2371 41.933C30.8391 41.8973 30.2936 41.8348 30.0208 41.7946C29.7481 41.7545 29.3188 41.6875 29.0595 41.6384C28.8001 41.5893 28.268 41.4688 27.8745 41.3661C27.481 41.2679 26.8371 41.0804 26.4436 40.9509C26.0501 40.8214 25.4241 40.5938 25.0575 40.4509C24.6863 40.3036 24.0827 40.0446 23.716 39.875C23.3449 39.7054 22.9558 39.5089 22.8485 39.433C22.7233 39.3482 22.5981 39.2054 22.5132 39.0536C22.388 38.8304 22.3746 38.7723 22.3746 38.4062C22.3746 38.0848 22.3924 37.9688 22.4685 37.8259C22.5221 37.7277 22.6607 37.5625 22.7815 37.4554C22.929 37.3259 23.0855 37.2366 23.2465 37.192C23.4477 37.1339 23.5371 37.1339 23.7384 37.1741C23.8725 37.2054 24.1006 37.2768 24.4985 37.4464L24.5701 37.2812C24.6103 37.1875 25.205 35.7009 25.8892 33.9777C26.7969 31.692 27.1501 30.75 27.1904 30.5179C27.2351 30.2634 27.2306 30.1161 27.1904 29.8348C27.1591 29.6384 27.092 29.3884 27.0428 29.2768C26.9936 29.1652 26.8774 29 26.7879 28.9062C26.6985 28.817 26.5644 28.7143 26.4973 28.683C26.3721 28.6295 26.3631 28.6384 25.9115 29.1205C25.6611 29.3929 25.3436 29.683 25.2095 29.7679C25.0753 29.8527 24.8518 29.9554 24.7087 30C24.5701 30.0446 24.3197 30.0804 24.1497 30.0804C23.9754 30.0804 23.7294 30.0446 23.5595 29.9955C23.3985 29.9464 23.166 29.8393 23.0453 29.7634C22.9201 29.683 22.7189 29.5179 22.5981 29.3884C22.4729 29.2589 22.312 29.0268 22.2359 28.8705C22.1554 28.7143 22.0705 28.4732 22.0392 28.3393C22.0034 28.192 21.99 27.9598 22.0079 27.7589C22.0213 27.5759 22.0705 27.3125 22.1241 27.1786C22.1733 27.0446 22.6652 26.2098 24.2168 23.7188L24.0067 23.0714C23.877 22.6562 23.8099 22.3839 23.8278 22.3125C23.8412 22.25 23.9217 22.1562 24.0067 22.1027C24.0871 22.0446 24.19 22 24.2258 22ZM25.0127 25.5268C24.977 25.6027 24.9457 25.7455 24.9457 25.8527C24.9457 25.9732 24.977 26.0938 25.0485 26.1964C25.1156 26.2991 25.2095 26.3705 25.3257 26.4107C25.4733 26.4554 25.5359 26.4554 25.6835 26.4107C25.7997 26.3705 25.8936 26.2991 25.9607 26.1964C26.0322 26.0938 26.0635 25.9777 26.0635 25.8527C26.0635 25.7455 26.0322 25.6027 25.9965 25.5268C25.9607 25.4509 25.8668 25.3616 25.7953 25.3259C25.7192 25.2902 25.5851 25.2589 25.4912 25.2589C25.4018 25.2634 25.2721 25.2902 25.2005 25.3259C25.1335 25.3616 25.0485 25.4509 25.0127 25.5268ZM27.4944 36.3616C26.9668 37.3393 26.5286 38.1562 26.5196 38.183C26.5107 38.2054 26.7835 38.3125 27.1233 38.4152C27.4631 38.5179 27.9416 38.6518 28.1875 38.7143C28.4334 38.7768 28.7867 38.8571 28.97 38.8929C29.1534 38.933 29.5558 39 29.8643 39.0491C30.1729 39.0982 30.6647 39.1607 30.9598 39.192C31.255 39.2232 31.957 39.2455 32.5249 39.2455C33.2001 39.2455 33.7858 39.2188 34.224 39.1696C34.5907 39.125 35.1139 39.0536 35.3866 39.0045C35.6594 38.9554 36.1513 38.8482 36.4822 38.7634C36.8131 38.6786 37.3407 38.5312 37.6537 38.4286L38.226 38.25C37.9891 37.817 37.5285 37 37.0545 36.1518L36.187 34.6116L28.4558 34.5893L27.4944 36.3616ZM31.7424 27.625H34.5818L34.5505 28.4598C34.5326 29.0491 34.5013 29.3705 34.4476 29.5446C34.4029 29.6786 34.3314 29.8661 34.2866 29.9554C34.2375 30.0491 34.1257 30.2054 34.0318 30.308C33.9423 30.4107 33.7769 30.5446 33.6651 30.6116C33.4997 30.7054 33.4058 30.7277 33.1509 30.7277C32.9273 30.7277 32.7842 30.7009 32.659 30.6384C32.5606 30.5893 32.3952 30.4643 32.2879 30.3616C32.185 30.2545 32.0509 30.067 31.9883 29.9464C31.9257 29.8214 31.8452 29.6071 31.8094 29.4643C31.7602 29.2812 31.7424 28.9777 31.7424 28.4152V27.625Z" fill="#748B86"/>
</svg>
