<svg width="64" height="64" viewBox="0 0 64 64" fill="none" xmlns="http://www.w3.org/2000/svg">
<rect width="64" height="64" rx="32" fill="#F7FBF6"/>
<path d="M26.6074 23.1051C26.3711 23.1598 26.0789 23.2397 25.9629 23.286C25.8426 23.3322 25.6234 23.429 25.4688 23.5047C25.3141 23.5804 25.052 23.7276 24.8887 23.8285C24.6695 23.9673 24.1023 24.493 22.7918 25.7715L21 27.521C23.8145 30.2757 24.6523 31.0748 24.6738 31.0748C24.6953 31.0748 24.9016 30.8939 25.125 30.6752C25.3484 30.4565 25.5461 30.2757 25.5676 30.2757C25.5848 30.2757 25.5977 32.6897 25.5977 35.6379V41H38.4023C38.4023 32.6897 38.4152 30.2757 38.4324 30.2757C38.4539 30.2757 38.6516 30.4565 38.875 30.6752C39.0984 30.8939 39.3004 31.0748 39.3262 31.0748C39.352 31.0748 40.1855 30.2757 41.1867 29.3L43 27.521C39.7301 24.3332 39.3047 23.9421 39.0469 23.7864C38.8707 23.6813 38.5484 23.5131 38.3379 23.4164C38.1273 23.3196 37.7664 23.1935 37.543 23.1346C37.1734 23.0379 37.0402 23.0252 36.1766 23.0126L35.2227 23C35.1883 23.3112 35.1582 23.5131 35.1324 23.6519C35.1066 23.7907 35.0293 24.0472 34.9562 24.2196C34.8875 24.3921 34.75 24.6486 34.6512 24.7874C34.5566 24.9262 34.3762 25.1322 34.2602 25.25C34.1398 25.3636 33.9422 25.5276 33.8262 25.6033C33.7059 25.6832 33.4781 25.8093 33.3105 25.885C33.143 25.9565 32.868 26.0491 32.6961 26.0869C32.5285 26.1248 32.2105 26.1542 32 26.1542C31.7895 26.1542 31.4715 26.1248 31.2996 26.0869C31.132 26.0491 30.8527 25.9565 30.6895 25.885C30.5262 25.8093 30.2941 25.6832 30.1738 25.6033C30.0578 25.5276 29.8602 25.3636 29.7398 25.25C29.6238 25.1322 29.4434 24.9262 29.3488 24.7874C29.25 24.6486 29.1125 24.3921 29.0437 24.2196C28.9707 24.0472 28.8934 23.7907 28.8676 23.6519C28.8418 23.5131 28.8117 23.3112 28.7988 23.1977L28.7773 23C27.1531 23.0042 26.9812 23.021 26.6074 23.1051Z" fill="#748B86"/>
</svg>
