<svg width="64" height="64" viewBox="0 0 64 64" fill="none" xmlns="http://www.w3.org/2000/svg">
<rect width="64" height="64" rx="32" fill="#F7FBF6"/>
<path d="M23.9396 22.1311C23.7922 22.2017 23.6154 22.3075 23.5515 22.368C23.4876 22.4285 23.3845 22.5899 23.3206 22.731L23.2027 22.9831L23.1978 38.3095C23.3747 38.4759 25.1382 39.2573 27.2309 40.1497C29.3237 41.0421 31.1364 41.8185 31.2592 41.8739C31.382 41.9344 31.5097 41.9899 31.5441 41.9949C31.5883 42.01 31.5981 40.306 31.5932 33.5603L31.5785 25.1056C26.666 22.9327 25.0744 22.2319 24.873 22.1512C24.6715 22.0655 24.4407 22 24.3571 22C24.2785 22.005 24.087 22.0605 23.9396 22.1311ZM39.0946 22.1512C38.903 22.237 37.3261 22.9327 35.5822 23.7041L32.4136 25.1056C32.394 40.3009 32.4038 42.01 32.4529 42C32.4824 41.9949 32.5315 41.9747 32.561 41.9546C32.5905 41.9395 34.3983 41.158 36.5892 40.2253C38.7802 39.2926 40.6174 38.4809 40.6813 38.4204L40.7943 38.3095C40.7845 24.8485 40.7697 22.9932 40.7255 22.8571C40.6911 22.7562 40.6076 22.5949 40.5339 22.489C40.4455 22.3731 40.2883 22.2521 40.1164 22.1664C39.9592 22.0907 39.743 22.0252 39.635 22.0151C39.5023 22.005 39.3255 22.0504 39.0946 22.1512ZM21.8665 22.8016C21.7928 22.8268 21.67 22.8772 21.5963 22.9226C21.5226 22.9629 21.3998 23.0638 21.3311 23.1444C21.2574 23.2201 21.1591 23.3663 21.11 23.4621C21.0216 23.6335 21.0167 23.9309 21.0019 31.0748C20.997 35.1636 21.0019 38.5767 21.0118 38.6624C21.0265 38.7431 21.11 38.9246 21.1984 39.0607C21.2869 39.1968 21.449 39.3582 21.557 39.4237C21.6798 39.4943 22.6132 39.7565 24.0378 40.1245C25.2954 40.4421 26.332 40.6942 26.3467 40.6791C26.3614 40.669 26.2485 40.6034 26.1011 40.5379C25.9537 40.4724 25.1923 40.1497 24.4112 39.8169C23.5073 39.4338 22.9276 39.1615 22.8146 39.0607C22.7164 38.975 22.5887 38.7885 22.5248 38.6473L22.4167 38.3851C22.4364 24.4048 22.4265 22.8016 22.3774 22.7814C22.3479 22.7663 22.2448 22.7562 22.1564 22.7613C22.0728 22.7613 21.9402 22.7814 21.8665 22.8016ZM41.5901 22.7814C41.5459 22.8016 41.541 24.6821 41.5606 30.5808L41.5852 38.3599C41.4084 38.7834 41.2757 38.975 41.1775 39.0607C41.0645 39.1615 40.4701 39.4439 39.5318 39.8422C38.7212 40.185 37.9647 40.5127 37.8419 40.5631C37.7191 40.6135 37.6307 40.669 37.6454 40.6791C37.6601 40.6942 38.6967 40.4421 39.9543 40.1245C41.4034 39.7514 42.3123 39.4943 42.4351 39.4237C42.5431 39.3582 42.6905 39.217 42.7642 39.1111C42.8379 39.0002 42.9214 38.8338 42.9509 38.7381C42.9853 38.6221 43 36.0408 43 31.1757C43 25.4636 42.9853 23.7444 42.9361 23.5931C42.9067 23.4873 42.7986 23.3058 42.7052 23.1949C42.6119 23.0839 42.4449 22.9478 42.3368 22.8924C42.2287 22.8419 42.0273 22.7865 41.8947 22.7764C41.7571 22.7663 41.6245 22.7714 41.5901 22.7814Z" fill="#748B86"/>
</svg>
