<svg width="64" height="64" viewBox="0 0 64 64" fill="none" xmlns="http://www.w3.org/2000/svg">
<rect width="64" height="64" rx="32" fill="#F7FBF6"/>
<path fill-rule="evenodd" clip-rule="evenodd" d="M23.5044 22.0078L39.2123 22L39.4859 22.0977C39.6383 22.1524 39.8532 22.2618 39.9704 22.3439C40.0876 22.422 40.2478 22.5783 40.3338 22.6838C40.4197 22.7932 40.5292 22.9691 40.58 23.0746C40.6307 23.184 40.6894 23.3754 40.7128 23.5044C40.7402 23.645 40.7558 24.2859 40.7558 26.5131H37.6767C35.1603 26.5131 34.5664 26.5249 34.4062 26.5678C34.2968 26.5991 34.1053 26.6655 33.9764 26.7202C33.8474 26.771 33.6286 26.8882 33.4879 26.982C33.3473 27.0719 33.1011 27.2868 32.9409 27.4587C32.7221 27.6893 32.6009 27.8573 32.4642 28.1347C32.3626 28.3379 32.2493 28.6193 32.2102 28.7599C32.1516 28.9905 32.1438 29.3343 32.1203 35.7152H27.8495C25.0126 35.7152 23.5239 35.6996 23.4067 35.6722C23.309 35.6488 23.141 35.5902 23.0355 35.5394C22.9261 35.4886 22.7502 35.3714 22.6447 35.2737C22.5353 35.1799 22.4025 35.0314 22.3439 34.9494C22.2852 34.8673 22.1837 34.668 22 34.2304V28.9436C22 24.407 22.0078 23.6255 22.0586 23.4184C22.0899 23.2817 22.1485 23.1058 22.1915 23.0277C22.2305 22.9456 22.3321 22.7932 22.4181 22.6838C22.5041 22.5783 22.6682 22.422 22.7854 22.3399C22.9026 22.2579 23.1097 22.1524 23.2504 22.1016L23.5044 22.0078ZM34.7969 27.6658H37.6415C40.2556 27.6658 40.5018 27.6697 40.7089 27.7362C40.83 27.7713 41.0215 27.8573 41.127 27.9276C41.2364 27.9941 41.4044 28.1347 41.5021 28.2363C41.5998 28.3418 41.717 28.4981 41.76 28.5841C41.8069 28.6701 41.8811 28.8342 41.9241 28.9553C42.0062 29.1702 42.0062 29.1702 41.9945 34.8556C41.9866 40.1502 41.9827 40.5527 41.9202 40.7441C41.8811 40.8575 41.7756 41.0606 41.6819 41.1935C41.5881 41.3303 41.4083 41.5178 41.2794 41.6155C41.1543 41.7132 40.9433 41.8382 40.58 41.9867L37.708 41.9945C34.8633 42.0063 34.8321 42.0063 34.6015 41.9203C34.4726 41.8773 34.2889 41.7913 34.1952 41.7366C34.0975 41.6819 33.949 41.5647 33.8591 41.4787C33.7693 41.3928 33.652 41.2521 33.5973 41.1661C33.5465 41.0802 33.4567 40.9043 33.3121 40.541L33.3004 34.9923C33.2925 31.1747 33.3043 29.3617 33.3316 29.1897C33.3551 29.0491 33.4254 28.8303 33.4879 28.7013C33.5465 28.5724 33.6755 28.3809 33.7693 28.2754C33.863 28.1699 34.0154 28.0292 34.1131 27.9628C34.2108 27.8964 34.4023 27.8026 34.5429 27.7557L34.7969 27.6658ZM36.5357 29.2757C36.4888 29.3539 36.4576 29.475 36.4576 29.5805C36.4576 29.6977 36.4849 29.7954 36.5436 29.8892C36.5943 29.9595 36.6959 30.0533 36.7702 30.0924C36.8952 30.1588 36.9851 30.1666 37.6963 30.1549C38.4113 30.1471 38.4934 30.1393 38.5911 30.0689C38.6458 30.0259 38.7317 29.94 38.7786 29.8775C38.8372 29.8032 38.8607 29.7094 38.8607 29.5805C38.8607 29.4476 38.8372 29.3539 38.7786 29.2796C38.7356 29.2171 38.6379 29.1272 38.5637 29.0803C38.4348 28.9944 38.3996 28.9905 37.6494 28.9905C36.9382 28.9944 36.8561 28.9983 36.7389 29.0725C36.6725 29.1155 36.5787 29.2054 36.5357 29.2757ZM28.291 36.8875H32.1203V39.5055H26.9039L26.728 39.4156C26.6342 39.3687 26.5209 39.2749 26.4819 39.2124C26.4428 39.1421 26.4115 39.0131 26.4115 38.8998C26.4115 38.7552 26.435 38.6771 26.4936 38.6068C26.5366 38.556 26.6186 38.4739 26.6733 38.4309C26.7632 38.3567 26.8374 38.3489 28.2715 38.3137L28.291 36.8875Z" fill="#748B86"/>
</svg>
