<svg width="64" height="64" viewBox="0 0 64 64" fill="none" xmlns="http://www.w3.org/2000/svg">
<rect width="64" height="64" rx="32" fill="#F7FBF6"/>
<path fill-rule="evenodd" clip-rule="evenodd" d="M32.7105 35.0368H41.9994V35.0364V34.7865C41.9994 33.3913 41.9995 31.996 41.9996 30.6007C41.9998 27.8101 42 25.0193 41.9994 22.2288C41.9989 20.8924 41.1101 20.0007 39.7801 20.0002C38.2664 19.9999 36.7528 20 35.2391 20.0001C34.4823 20.0002 33.7254 20.0002 32.9686 20.0002H32.7105V35.0368ZM34.2781 30.8699C34.2788 30.809 34.2795 30.7481 34.2795 30.6872C34.2795 30.6263 34.2788 30.5654 34.2781 30.5045C34.2766 30.3705 34.2751 30.2367 34.2809 30.103C34.2972 29.7208 34.6009 29.4254 34.9703 29.4226C35.3392 29.4198 35.6565 29.7114 35.6691 30.0922C35.6826 30.489 35.6826 30.8868 35.6691 31.2835C35.656 31.6648 35.3388 31.956 34.9698 31.9527C34.6009 31.9494 34.2976 31.6536 34.2809 31.2713C34.2751 31.1377 34.2766 31.0038 34.2781 30.8699ZM26.2325 44H25.8603C25.4574 43.8131 25.3064 43.4915 25.346 43.0557C25.3577 42.9255 25.3548 42.7938 25.3517 42.655V42.655C25.3503 42.5895 25.3488 42.5225 25.3488 42.4532H24.2178C22.8896 42.4514 22.0003 41.5578 22.0003 40.2209C21.9999 34.2216 21.9999 28.2224 22.0003 22.2232C22.0008 20.9004 22.892 20.0016 24.2038 20.0007C25.723 19.9997 27.2421 20.0001 28.7612 20.0004C29.5208 20.0005 30.2803 20.0007 31.04 20.0007H31.285V42.4589H26.744C26.744 42.5257 26.7425 42.5911 26.7411 42.6553C26.738 42.7926 26.7351 42.9247 26.7468 43.0552C26.7859 43.4915 26.6341 43.8122 26.2325 44ZM28.3249 30.8571L28.3249 30.8573C28.3237 30.9906 28.3225 31.1238 28.3269 31.2568C28.3404 31.6522 28.647 31.9541 29.0252 31.9527C29.3946 31.9513 29.7049 31.6578 29.7165 31.2751C29.7287 30.8863 29.7277 30.4961 29.717 30.1073C29.7063 29.7232 29.4012 29.4283 29.0318 29.4231C28.653 29.4179 28.3423 29.7185 28.3269 30.1124C28.3221 30.2415 28.3233 30.371 28.3245 30.5005C28.325 30.5581 28.3255 30.6156 28.3255 30.6731L28.326 30.6726C28.326 30.7341 28.3254 30.7956 28.3249 30.8571ZM37.7667 44C37.3638 43.8131 37.2129 43.4915 37.2525 43.0552C37.2642 42.9247 37.2612 42.7926 37.2582 42.6553C37.2567 42.5911 37.2553 42.5257 37.2553 42.4589H32.7142V36.4671H41.9994V36.6813C41.9994 37.0771 41.9995 37.473 41.9997 37.8688C42 38.6605 42.0003 39.4521 41.9994 40.2434C41.997 41.5488 41.1017 42.4495 39.8062 42.4528C39.555 42.4534 39.3041 42.4532 39.0503 42.453L39.0473 42.453C38.9203 42.4529 38.7927 42.4528 38.664 42.4528C38.6468 42.5958 38.6507 42.745 38.6546 42.8933V42.8934C38.666 43.3328 38.6773 43.764 38.1399 43.9995H37.7677L37.7667 44ZM36.6501 38.0942C36.5922 38.0942 36.5342 38.0937 36.4762 38.0933C36.3487 38.0923 36.2211 38.0913 36.0939 38.0951C35.6998 38.1073 35.3989 38.4102 35.3961 38.7915C35.3933 39.1723 35.6924 39.4879 36.0837 39.4977C36.4619 39.5071 36.8411 39.5071 37.2194 39.4977C37.6116 39.4879 37.9093 39.1728 37.906 38.7906C37.9028 38.4083 37.6028 38.1073 37.2068 38.0951C37.0793 38.0913 36.9519 38.0923 36.8244 38.0933C36.7665 38.0937 36.7085 38.0942 36.6506 38.0942H36.6501Z" fill="#748B86"/>
</svg>
