<svg width="64" height="64" viewBox="0 0 64 64" fill="none" xmlns="http://www.w3.org/2000/svg">
<rect width="64" height="64" rx="32" fill="#F7FBF6"/>
<path d="M30.1879 23.0834C30.1094 23.1604 30.0897 23.223 30.1094 23.3627C30.1241 23.4638 30.1634 23.8394 30.2076 24.1957C30.2469 24.552 30.3107 25.2887 30.35 25.8328C30.3893 26.3769 30.4384 27.2195 30.4531 27.7106C30.4728 28.221 30.4629 28.9721 30.4335 29.4681C30.404 29.9448 30.3451 30.6044 30.3009 30.9367C30.2616 31.2689 30.1732 31.8611 30.1045 32.2608C30.0357 32.6556 29.9277 33.2286 29.8589 33.5223C29.7951 33.8208 29.7411 34.0857 29.7411 34.1146C29.7411 34.1483 31.6268 34.1627 35.3049 34.1627H40.8638C40.6232 32.9493 40.5054 32.2319 40.4513 31.7793C40.3924 31.3267 40.3237 30.6478 40.2991 30.2626C40.2746 29.8774 40.25 29.2322 40.25 28.8277C40.25 28.4281 40.2746 27.7636 40.2991 27.3591C40.3286 26.9595 40.3973 26.2709 40.4513 25.8328C40.5054 25.3946 40.6036 24.7253 40.6723 24.3401C40.7362 23.9549 40.7902 23.5986 40.7902 23.5456C40.7951 23.4927 40.7558 23.4108 40.7067 23.3627C40.6281 23.2856 40.5692 23.2808 40.1272 23.3242C39.8571 23.353 39.3366 23.3964 38.9732 23.4253C38.6098 23.4493 37.7161 23.4975 36.9844 23.5216C36.0955 23.5553 35.3442 23.5553 34.7009 23.5216C34.1754 23.4927 33.3554 23.4301 32.8839 23.3771C32.4125 23.3242 31.7054 23.223 31.3125 23.1556C30.9196 23.0882 30.5317 23.0208 30.4482 23.0064C30.3353 22.9871 30.2665 23.0112 30.1879 23.0834ZM21.933 34.9476C21.8348 34.9813 21.6777 35.0631 21.5746 35.1353C21.4763 35.2124 21.3388 35.3424 21.2701 35.4242C21.2013 35.5109 21.1129 35.6891 21.0737 35.8239C21.0098 36.0213 21 36.4017 21 37.9906V39.9166C21.221 40.3644 21.3585 40.557 21.4518 40.6341C21.5402 40.7111 21.7317 40.8267 21.8692 40.8893L22.1295 41L41.8951 40.9952C42.3518 40.7833 42.5482 40.6485 42.6268 40.5618C42.7054 40.4704 42.8134 40.3115 42.8674 40.2055C42.9214 40.0996 42.9754 39.8733 42.9902 39.7C43.0098 39.4448 42.9951 39.3436 42.9116 39.1559C42.8527 39.0307 42.7201 38.8381 42.617 38.7321C42.5187 38.6214 42.3469 38.4866 42.2388 38.4288L42.0424 38.3277C28.4938 38.2892 24.5259 38.2651 24.4866 38.2458C24.4473 38.2266 24.3835 38.1543 24.3491 38.0869C24.3196 38.0195 24.2902 37.9328 24.2902 37.8943C24.2902 37.8558 24.3442 37.7691 24.4129 37.7017L24.5308 37.5814C40.471 37.5814 41.7821 37.5717 41.9933 37.5139C42.1259 37.4754 42.3371 37.3743 42.4549 37.2828C42.5826 37.1865 42.7397 37.0084 42.833 36.835C42.9656 36.6087 43 36.4884 43 36.2813C43 36.1369 42.9705 35.9202 42.9263 35.7998C42.8871 35.6794 42.7692 35.4868 42.671 35.3713C42.5679 35.2557 42.3862 35.1016 42.2634 35.0342L42.0424 34.909C24.3737 34.8898 22.0656 34.9042 21.933 34.9476ZM23.0871 23.666L22.9888 23.7671C23.2393 25.2357 23.3424 25.9339 23.3768 26.2661C23.4161 26.5984 23.475 27.2243 23.5094 27.6625C23.5437 28.1488 23.5585 28.8951 23.5388 29.5885C23.5241 30.2096 23.475 31.0041 23.4357 31.3459C23.3915 31.6926 23.3228 32.1789 23.2835 32.4293C23.2442 32.6797 23.1558 33.1564 23.0871 33.4886C23.0183 33.8208 22.9643 34.1049 22.9643 34.129C22.9643 34.1483 24.3147 34.1579 25.9696 34.1531L28.975 34.1386C29.1125 33.5416 29.2156 33.0216 29.2991 32.5978C29.3777 32.1741 29.4857 31.4904 29.5397 31.0811C29.5937 30.6718 29.6625 29.9688 29.6969 29.5162C29.7312 29.0203 29.7411 28.3221 29.7214 27.7347C29.7018 27.205 29.6674 26.478 29.6379 26.1217C29.6134 25.7654 29.5692 25.2357 29.5446 24.942C29.5152 24.6531 29.4808 24.3305 29.471 24.2342L29.4464 24.0512C28.4397 24.0994 27.7228 24.0849 27.2121 24.056C26.6964 24.0223 25.9353 23.9549 25.5179 23.9068C25.1004 23.8538 24.5013 23.7671 24.192 23.7142C23.8826 23.6612 23.529 23.6034 23.4062 23.589C23.2196 23.5649 23.1705 23.5745 23.0871 23.666Z" fill="#748B86"/>
</svg>
