<svg width="64" height="64" viewBox="0 0 64 64" fill="none" xmlns="http://www.w3.org/2000/svg">
<rect width="64" height="64" rx="32" fill="#F7FBF6"/>
<path fill-rule="evenodd" clip-rule="evenodd" d="M32.6787 21.5L32.9452 21.5943C33.0929 21.6476 33.2938 21.7461 33.3963 21.8158C33.4988 21.8814 33.6547 22.0209 33.7449 22.1234C33.8351 22.2218 33.9581 22.4064 34.0155 22.5294C34.077 22.6525 34.1426 22.8493 34.1714 22.9683C34.196 23.0831 34.2165 23.4686 34.2165 24.453H32.3711C30.8456 24.453 30.4725 24.4653 30.2059 24.5186C30.0337 24.5555 29.7712 24.6334 29.6236 24.695C29.476 24.7565 29.2463 24.8836 29.111 24.9738C28.9757 25.0641 28.7666 25.2404 28.6435 25.3594C28.5246 25.4824 28.3483 25.6916 28.2581 25.8269C28.1637 25.9623 28.0407 26.1919 27.9792 26.3396C27.9177 26.4872 27.8357 26.7497 27.8029 26.922C27.7578 27.1517 27.7373 27.4757 27.7373 28.8824H21.5041V26.032C21.5041 24.0921 21.5205 23.1118 21.5492 22.9642C21.5738 22.8493 21.6435 22.6484 21.7009 22.5253C21.7624 22.3941 21.9101 22.1972 22.0536 22.0537C22.193 21.9142 22.3776 21.7707 22.4678 21.7256C22.558 21.6846 22.7138 21.6189 22.8163 21.5779C22.9886 21.5123 23.3576 21.5082 32.6787 21.5ZM24.0384 25.1174C23.9769 25.2322 23.9687 25.3881 23.9646 26.2042C23.9646 27.0614 23.9728 27.1763 24.0425 27.3116C24.0876 27.4018 24.186 27.5044 24.2762 27.5577C24.3664 27.6069 24.4977 27.6479 24.5674 27.652C24.6412 27.652 24.7765 27.6151 24.8667 27.57C24.9761 27.5153 25.0581 27.4333 25.1128 27.3239C25.1866 27.1722 25.1948 27.0778 25.1948 26.2166C25.1948 25.3553 25.1866 25.2609 25.1128 25.1092C25.0581 24.9998 24.9761 24.9178 24.8667 24.8631C24.7765 24.818 24.6412 24.7811 24.5674 24.7811C24.4977 24.7811 24.3623 24.8262 24.2721 24.8836C24.1819 24.9369 24.0753 25.0436 24.0384 25.1174ZM35.7009 25.6875C39.3219 25.6834 40.8802 25.6957 41.036 25.7285C41.1509 25.7531 41.3518 25.8228 41.4748 25.8802C41.606 25.9418 41.8029 26.0894 41.9464 26.233C42.0858 26.3724 42.2294 26.557 42.2745 26.6472C42.3155 26.7374 42.3852 26.9015 42.4262 27.0163C42.4918 27.1968 42.5 27.3608 42.5 29.7847H28.9675V28.5748C28.9675 27.8407 28.9839 27.2788 29.0126 27.1476C29.0372 27.0327 29.1069 26.8318 29.1643 26.7087C29.2258 26.5775 29.3735 26.3806 29.517 26.2371C29.6564 26.0976 29.8615 25.9418 29.9722 25.8884C30.087 25.8351 30.2715 25.7695 30.3823 25.7408C30.5422 25.7039 31.756 25.6916 35.705 25.6875H35.7009ZM36.4186 27.4552C36.3817 27.529 36.3489 27.652 36.3448 27.7217C36.3448 27.7956 36.3817 27.9268 36.4227 28.0088C36.4678 28.0991 36.5662 28.2016 36.6564 28.2549C36.7466 28.3041 36.8779 28.3452 36.9517 28.3493C37.0214 28.3493 37.1567 28.3123 37.2469 28.2672C37.3563 28.2125 37.4383 28.1305 37.493 28.0211C37.5381 27.9309 37.575 27.7997 37.575 27.7341C37.575 27.6643 37.5381 27.5372 37.493 27.447C37.4383 27.3376 37.3563 27.2556 37.2469 27.2009C37.1567 27.1558 37.0214 27.1188 36.9517 27.1188C36.8779 27.1188 36.7425 27.164 36.6523 27.2214C36.5621 27.2747 36.4555 27.3813 36.4186 27.4552ZM38.879 27.4552C38.8421 27.529 38.8093 27.652 38.8052 27.7217C38.8052 27.7956 38.8421 27.9268 38.8831 28.0088C38.9282 28.0991 39.0267 28.2016 39.1169 28.2549C39.2071 28.3041 39.3383 28.3452 39.4121 28.3493C39.4818 28.3493 39.6172 28.3123 39.7074 28.2672C39.8167 28.2125 39.8988 28.1305 39.9534 28.0211C39.9985 27.9309 40.0354 27.7997 40.0354 27.7341C40.0354 27.6643 39.9985 27.5372 39.9534 27.447C39.8988 27.3376 39.8167 27.2556 39.7074 27.2009C39.6172 27.1558 39.4818 27.1188 39.4121 27.1188C39.3383 27.1188 39.203 27.164 39.1128 27.2214C39.0226 27.2747 38.9159 27.3813 38.879 27.4552ZM21.5 30.1128H27.7332L27.7455 35.662C27.7537 40.6123 27.7619 41.2275 27.8234 41.4121C27.8562 41.5228 27.93 41.7197 27.9792 41.8427C28.0284 41.9657 28.1309 42.1667 28.3483 42.4989H25.6951C23.2223 42.4989 23.0255 42.4948 22.8327 42.4251C22.722 42.3841 22.5539 42.3144 22.4637 42.2733C22.3735 42.2282 22.1889 42.0847 22.0536 41.9452C21.9142 41.8099 21.7624 41.6048 21.7091 41.4941C21.6558 41.3792 21.5861 41.207 21.5574 41.1045C21.5123 40.9527 21.5 39.9643 21.5 35.5143V30.1128ZM24.0343 31.6837C23.9728 31.8026 23.9646 31.9995 23.9646 33.5908C23.9605 35.2518 23.9646 35.3749 24.0384 35.5184C24.0835 35.6086 24.1819 35.7112 24.2762 35.7645C24.3623 35.8137 24.4936 35.8547 24.5674 35.8547C24.6371 35.8547 24.7724 35.8219 24.8626 35.7768C24.972 35.7221 25.054 35.6401 25.1087 35.5307C25.1866 35.3708 25.1907 35.2846 25.1907 33.6031C25.1907 31.9215 25.1866 31.8313 25.1087 31.6755C25.054 31.5661 24.972 31.4841 24.8626 31.4294C24.7724 31.3843 24.6371 31.3473 24.5674 31.3473C24.4936 31.3473 24.3582 31.3925 24.268 31.4458C24.1778 31.5032 24.0712 31.6057 24.0343 31.6837ZM28.9634 31.0192H42.4959V35.9491C42.4959 39.9356 42.4836 40.9199 42.4385 41.088C42.4098 41.1988 42.336 41.3874 42.2786 41.5064C42.2171 41.6253 42.0981 41.7976 42.0161 41.8919C41.93 41.9862 41.7701 42.1216 41.6552 42.1954C41.5445 42.2651 41.3395 42.3636 40.9581 42.4989H35.7296C30.7636 42.503 30.493 42.4989 30.2961 42.4251C30.1854 42.3841 30.0173 42.3144 29.9271 42.2733C29.8368 42.2323 29.6523 42.0847 29.517 41.9493C29.3735 41.8058 29.2217 41.6048 29.1643 41.4777C29.1028 41.3505 29.0372 41.1537 29.0085 41.0347C28.9757 40.883 28.9634 39.4188 28.9634 35.9162V31.0192ZM34.766 32.3809C34.5855 32.426 34.2903 32.5326 34.1098 32.6147C33.9294 32.7008 33.6629 32.8484 33.5152 32.951C33.3676 33.0494 33.1298 33.2504 32.9821 33.398C32.8345 33.5457 32.6336 33.7876 32.531 33.9312C32.4326 34.0788 32.2809 34.3495 32.1989 34.5259C32.1128 34.7063 32.0021 35.0057 31.9528 35.1821C31.8749 35.4569 31.8626 35.6168 31.8626 36.1459C31.8626 36.6791 31.8749 36.8391 31.9528 37.1097C32.0021 37.2902 32.1128 37.5896 32.1989 37.766C32.2809 37.9464 32.4326 38.2171 32.531 38.3607C32.6336 38.5083 32.8345 38.7503 32.9821 38.8979C33.1298 39.0456 33.3676 39.2465 33.5152 39.345C33.6629 39.4475 33.9294 39.5952 34.1098 39.6813C34.2903 39.7633 34.5937 39.874 34.7865 39.9274C35.0817 40.0053 35.2335 40.0217 35.7501 40.0176C36.2463 40.0176 36.4268 40.0012 36.6933 39.9274C36.8738 39.8781 37.169 39.7674 37.3494 39.6813C37.5299 39.5952 37.7964 39.4434 37.9441 39.345C38.0917 39.2465 38.3336 39.0456 38.4813 38.8979C38.6248 38.7503 38.8298 38.5083 38.9282 38.3607C39.0267 38.2171 39.1784 37.9464 39.2604 37.766C39.3465 37.5896 39.4572 37.282 39.5105 37.0892C39.5885 36.8021 39.6049 36.6381 39.6049 36.1459C39.6049 35.6579 39.5885 35.4938 39.5105 35.2026C39.4572 35.0139 39.3465 34.7063 39.2604 34.5259C39.1784 34.3495 39.0267 34.0788 38.9282 33.9312C38.8298 33.7876 38.6248 33.5457 38.4813 33.398C38.3336 33.2504 38.0917 33.0494 37.9441 32.951C37.7964 32.8525 37.5299 32.7008 37.3494 32.6147C37.169 32.5285 36.8738 32.4178 36.6933 32.3727C36.4719 32.3153 36.2012 32.2824 35.8527 32.2742C35.5697 32.266 35.2868 32.266 35.217 32.2783C35.1514 32.2907 34.9464 32.3358 34.766 32.3809ZM35.7091 33.4841C35.8691 33.4841 36.1274 33.5088 36.2832 33.5416C36.4432 33.5785 36.7261 33.681 36.9189 33.7753C37.1936 33.9107 37.3412 34.0173 37.5996 34.2798C37.862 34.5382 37.9687 34.6858 38.104 34.9565C38.1983 35.1493 38.3008 35.4364 38.3336 35.5922C38.3664 35.7522 38.3951 36.0024 38.3951 36.1459C38.3951 36.2936 38.3664 36.5438 38.3336 36.6996C38.3008 36.8596 38.1983 37.1467 38.104 37.3353C37.9687 37.6101 37.862 37.7578 37.5996 38.0161C37.3412 38.2786 37.1936 38.3853 36.9189 38.5206C36.7261 38.6149 36.4432 38.7175 36.2832 38.7544C36.1274 38.7872 35.8773 38.8118 35.7296 38.8118C35.582 38.8118 35.336 38.7872 35.176 38.7544C35.0202 38.7175 34.7332 38.6149 34.5404 38.5206C34.2657 38.3853 34.1221 38.2786 33.8597 38.0161C33.6013 37.7578 33.4906 37.6101 33.3553 37.3353C33.2651 37.1467 33.1585 36.8596 33.1257 36.6996C33.0929 36.5438 33.0641 36.2936 33.0641 36.1459C33.0641 36.0024 33.0929 35.7522 33.1257 35.5922C33.1585 35.4364 33.2651 35.1493 33.3553 34.9565C33.4906 34.6858 33.6013 34.5382 33.8597 34.2798C34.1221 34.0173 34.2698 33.9107 34.5404 33.7753C34.7332 33.681 35.0079 33.5785 35.1555 33.5457C35.3032 33.5129 35.5533 33.4882 35.7091 33.4841Z" fill="#748B86"/>
</svg>
