<svg width="64" height="64" viewBox="0 0 64 64" fill="none" xmlns="http://www.w3.org/2000/svg">
<rect width="64" height="64" rx="32" fill="#F7FBF6"/>
<path fill-rule="evenodd" clip-rule="evenodd" d="M28.4428 22.0045C28.8644 22 29.042 22.0223 29.3926 22.1116C29.6322 22.1741 29.9873 22.3036 30.1826 22.4018C30.3778 22.4955 30.6663 22.6696 30.8261 22.7946C30.9859 22.9152 31.2344 23.1429 31.3809 23.3036C31.5273 23.4643 31.7226 23.7232 31.8158 23.8795C31.9046 24.0357 31.9889 24.183 32.0022 24.2098C32.017 24.2396 32.0318 24.2396 32.0466 24.2098C32.0599 24.183 32.1442 24.0357 32.233 23.8795C32.3262 23.7232 32.5215 23.4643 32.6679 23.3036C32.8144 23.1429 33.0629 22.9152 33.2227 22.7946C33.3825 22.6696 33.671 22.4955 33.8663 22.4018C34.0615 22.3036 34.4166 22.1741 34.6518 22.1116C34.9891 22.0268 35.1977 22 35.5749 22C35.9478 22 36.1608 22.0268 36.4715 22.1071C36.6978 22.1652 37.0129 22.2723 37.1727 22.3438C37.3325 22.4152 37.581 22.5536 37.7275 22.6473C37.8739 22.7411 38.1225 22.9375 38.2778 23.0893C38.4331 23.2411 38.6417 23.4821 38.7482 23.6295C38.8503 23.7768 39.0012 24.0223 39.0767 24.1786C39.1521 24.3304 39.2675 24.6295 39.3341 24.8438C39.4362 25.192 39.4495 25.308 39.4495 25.8839C39.4495 26.4598 39.4362 26.5759 39.3341 26.9196C39.2675 27.1384 39.1521 27.4375 39.0767 27.5893C39.0012 27.7455 38.8991 27.9196 38.7793 28.0938L39.2986 28.125C39.6492 28.1429 39.9377 28.192 40.1995 28.2679C40.417 28.3304 40.7143 28.4464 40.8652 28.5223C41.0206 28.6027 41.2336 28.7232 41.3446 28.7991C41.4555 28.875 41.673 29.058 41.8283 29.2054C41.9837 29.3571 42.1923 29.5982 42.2988 29.7455C42.4008 29.8929 42.5517 30.1384 42.6272 30.2902C42.7026 30.4464 42.818 30.7455 42.8846 30.9598C42.9867 31.308 43 31.4241 43 32C43 32.5759 42.9867 32.692 42.8846 33.0357C42.818 33.2545 42.7026 33.5536 42.6272 33.7054C42.5473 33.8616 42.4275 34.0759 42.352 34.1875C42.2766 34.2991 42.0946 34.5179 41.9482 34.6741C41.7973 34.8304 41.5576 35.0402 41.4111 35.1473C41.2647 35.25 41.0206 35.4018 40.8652 35.4777C40.7143 35.5536 40.417 35.6696 40.1995 35.7321C39.9377 35.808 39.6492 35.8571 38.7793 35.9062L38.8592 36.0179C38.8991 36.0804 39.0012 36.2545 39.0767 36.4063C39.1521 36.5625 39.2675 36.8616 39.3341 37.0759C39.4362 37.4241 39.4495 37.5402 39.4495 38.1161C39.4495 38.692 39.4362 38.808 39.3341 39.1518C39.2675 39.3705 39.1521 39.6696 39.0767 39.8214C39.0012 39.9777 38.8503 40.2232 38.7482 40.3705C38.6417 40.5179 38.4331 40.7589 38.2778 40.9107C38.1225 41.0625 37.8739 41.2589 37.7275 41.3527C37.581 41.4464 37.3325 41.5848 37.1727 41.6562C37.0129 41.7277 36.6978 41.8348 36.4715 41.8929C36.1608 41.9732 35.9478 42 35.5749 42C35.2021 42 34.9891 41.9732 34.674 41.8929C34.4521 41.8348 34.137 41.7277 33.9772 41.6562C33.8174 41.5848 33.5289 41.4152 33.3381 41.2857C33.1473 41.1518 32.8543 40.8973 32.6946 40.7232C32.5348 40.5491 32.3262 40.2768 32.233 40.1205C32.1442 39.9643 32.0599 39.817 32.0466 39.7902C32.0318 39.7604 32.017 39.7604 32.0022 39.7902C31.9889 39.817 31.9046 39.9643 31.8158 40.1205C31.7226 40.2768 31.5273 40.5357 31.3809 40.6964C31.2344 40.8571 30.9859 41.0848 30.8261 41.2054C30.6663 41.3304 30.3778 41.5045 30.1826 41.5982C29.9873 41.6964 29.6322 41.8259 29.3926 41.8884C29.0597 41.9732 28.8511 42 28.4739 42C28.1011 42 27.888 41.9732 27.5729 41.8929C27.351 41.8348 27.0359 41.7277 26.8761 41.6562C26.7164 41.5848 26.4678 41.4464 26.3214 41.3527C26.1749 41.2589 25.9264 41.0625 25.771 40.9107C25.6157 40.7589 25.4071 40.5179 25.3006 40.3705C25.1985 40.2232 25.0476 39.9777 24.9722 39.8214C24.8967 39.6696 24.7813 39.3705 24.7147 39.1518C24.6127 38.808 24.5994 38.692 24.5994 38.1161C24.5994 37.5402 24.6127 37.4241 24.7147 37.0759C24.7813 36.8616 24.8967 36.5625 24.9722 36.4063C25.0476 36.2545 25.1497 36.0759 25.2784 35.8839H24.9322C24.7458 35.8839 24.4085 35.8527 24.191 35.817C23.9691 35.7768 23.6318 35.6786 23.4366 35.6027C23.2413 35.5223 22.9306 35.3571 22.7486 35.2366C22.5667 35.1161 22.2915 34.8884 22.1362 34.7366C21.9853 34.5804 21.7589 34.2991 21.6391 34.1071C21.5148 33.9196 21.3551 33.6116 21.284 33.4286C21.2175 33.2455 21.1243 32.9241 21.0799 32.7143C21.0355 32.5045 21 32.183 21 32C21 31.817 21.0355 31.4955 21.0799 31.2857C21.1243 31.0759 21.2175 30.7545 21.284 30.5714C21.3551 30.3884 21.5193 30.0759 21.6435 29.8795C21.7722 29.683 22.0075 29.3929 22.1672 29.2321C22.3315 29.0714 22.6111 28.8482 22.793 28.7321C22.975 28.6161 23.2768 28.4643 23.4587 28.3884C23.6407 28.317 23.9691 28.2232 24.191 28.183C24.4085 28.1473 24.7458 28.1161 25.2784 28.1161L25.1941 27.9911C25.1497 27.9241 25.0476 27.7455 24.9722 27.5893C24.8967 27.4375 24.7813 27.1384 24.7147 26.9196C24.6127 26.5759 24.5994 26.4598 24.5994 25.8839C24.5994 25.308 24.6127 25.192 24.7147 24.8438C24.7813 24.6295 24.8967 24.3304 24.9722 24.1741C25.0476 24.0223 25.1985 23.7768 25.3006 23.6295C25.4071 23.4821 25.6157 23.2411 25.771 23.0893C25.9264 22.9375 26.1749 22.7411 26.3214 22.6473C26.4678 22.5536 26.7164 22.4152 26.8761 22.3438C27.0359 22.2723 27.3333 22.1652 27.5419 22.1116C27.8259 22.0357 28.0478 22.0089 28.4384 22.0045H28.4428ZM30.9504 28.9777C30.7995 29.0313 30.5554 29.1473 30.4089 29.2321C30.2625 29.317 29.9829 29.5491 29.7876 29.7455C29.5923 29.942 29.3571 30.2321 29.2639 30.3929C29.1707 30.5536 29.0464 30.8438 28.9843 31.0402C28.9177 31.2545 28.8644 31.558 28.8467 31.7991C28.8289 32.0714 28.8422 32.317 28.8911 32.558C28.9266 32.7545 28.9976 33.0268 29.0508 33.1607C29.0997 33.2946 29.2372 33.558 29.3571 33.7411C29.4769 33.9241 29.7121 34.2054 29.8808 34.3661C30.0849 34.5536 30.3246 34.7232 30.5687 34.8438C30.7728 34.9464 31.0702 35.067 31.23 35.1116C31.4386 35.1696 31.6694 35.192 32.0732 35.1875C32.5348 35.183 32.6857 35.1652 32.9609 35.0759C33.1428 35.0134 33.4313 34.8884 33.6044 34.7902C33.7997 34.683 34.0527 34.4821 34.2746 34.2589C34.4965 34.0357 34.6962 33.7812 34.8027 33.5848C34.9003 33.4107 35.0246 33.1205 35.0867 32.9375C35.1755 32.6607 35.1933 32.5089 35.1977 32.0446C35.2021 31.6384 35.1799 31.4062 35.1223 31.1964C35.0779 31.0357 34.9625 30.7366 34.8604 30.5268C34.7095 30.2188 34.5985 30.0714 34.2701 29.7455C33.9506 29.4196 33.7952 29.3036 33.4934 29.1518C33.2849 29.0491 32.9964 28.933 32.8499 28.8929C32.7035 28.8571 32.3839 28.817 32.1398 28.808C31.8957 28.7991 31.5895 28.808 31.4608 28.8348C31.3365 28.8571 31.1057 28.9196 30.9504 28.9777Z" fill="#748B86"/>
</svg>
