<svg width="64" height="64" viewBox="0 0 64 64" fill="none" xmlns="http://www.w3.org/2000/svg">
<rect width="64" height="64" rx="32" fill="#F7FBF6"/>
<path fill-rule="evenodd" clip-rule="evenodd" d="M26.6747 22.0001C26.7753 21.9957 27.4934 22.1697 28.2755 22.3828C29.0576 22.5915 29.7849 22.8133 29.8992 22.8655C30.0136 22.922 30.2056 23.0568 30.3246 23.1655C30.4618 23.2873 30.6036 23.4743 30.6859 23.6483C30.814 23.9092 30.8414 24.0657 31.0518 25.6487C31.2073 26.8185 31.2713 27.4578 31.2576 27.6491C31.2347 27.91 31.1707 28.0492 30.4846 29.3625C29.8535 30.5758 29.7025 30.8281 29.5104 31.0194C29.3824 31.1412 29.1674 31.289 29.0302 31.3499C28.893 31.4151 28.0468 31.6369 27.155 31.8457C25.6639 32.1979 25.5039 32.2283 25.1883 32.2066C24.9459 32.1936 24.7675 32.1544 24.58 32.0718C24.4382 32.0066 24.2141 31.8631 24.086 31.7456C23.9579 31.6326 23.7933 31.4325 23.7247 31.3021C23.6561 31.1716 23.2673 30.3584 22.8648 29.4973C22.4669 28.6363 22.1147 27.8622 22.0873 27.7796C22.0598 27.6969 22.0278 27.5491 22.0095 27.4534C21.9912 27.3577 22.0004 27.1621 22.0278 27.0185C22.0553 26.875 22.1284 26.6576 22.1925 26.5402C22.2519 26.4184 23.0112 25.466 23.8802 24.418C24.9138 23.1612 25.5267 22.4567 25.6731 22.3523C25.7966 22.2654 26.0298 22.1479 26.1945 22.0958C26.3591 22.0436 26.5741 22.0001 26.6747 22.0001ZM37.8804 30.8541C38.0587 30.8628 38.292 30.8933 38.4064 30.9194C38.5207 30.9455 38.7631 31.0324 38.9415 31.1107C39.161 31.2064 39.3806 31.3542 39.5772 31.5282C39.8105 31.7369 40.0941 32.1022 40.7527 33.0416C41.2329 33.7243 41.6811 34.3984 41.7543 34.5419C41.8229 34.6854 41.9144 34.9681 41.951 35.1725C41.9967 35.416 42.0105 35.6378 41.9922 35.8248C41.9739 35.9813 41.9236 36.2336 41.8732 36.3901C41.8229 36.5467 41.7498 36.7337 41.7132 36.8032C41.672 36.8728 41.0545 37.7339 40.3319 38.7123C39.3577 40.0387 38.9552 40.5519 38.7494 40.7258C38.5984 40.8519 38.3332 41.0259 38.1548 41.1085C37.9261 41.2129 37.3864 41.3607 36.2567 41.6304C35.3877 41.8347 34.5873 42 34.4729 42C34.3586 42 34.1025 41.9609 33.9012 41.9087C33.7 41.8608 33.4439 41.7826 33.3295 41.7347C33.2152 41.6869 32.3096 41.1563 31.3171 40.5519C30.2056 39.8822 29.4052 39.3647 29.2406 39.2168C29.0942 39.0863 28.8884 38.8602 28.7924 38.7167C28.6963 38.5732 28.5637 38.2992 28.4996 38.1079C28.4036 37.8295 28.3807 37.6686 28.3807 37.3251C28.3807 37.0033 28.4036 36.8163 28.4768 36.6075C28.5271 36.451 28.9067 35.6204 29.3183 34.7593C29.73 33.8983 30.1279 33.1068 30.2056 32.9981C30.2834 32.8894 30.4526 32.7024 30.5807 32.5849C30.7088 32.4632 30.9237 32.3023 31.0564 32.224C31.189 32.1457 31.3994 32.0457 31.5229 32.0022C31.6509 31.9544 32.9956 31.6848 34.5187 31.3977C36.0417 31.1064 37.3498 30.8628 37.423 30.8541C37.4962 30.8411 37.702 30.8411 37.8804 30.8541ZM33.7869 33.8156C33.7228 33.8591 33.6222 33.9635 33.5673 34.0461C33.4804 34.1635 33.4621 34.2375 33.4759 34.4201C33.485 34.5549 33.5262 34.6897 33.5856 34.768C33.6359 34.8333 33.7777 34.9376 33.9058 34.9942L34.1299 35.1029C36.0097 34.7506 36.6455 34.6463 36.7598 34.6463C36.8742 34.6506 37.0388 34.6723 37.1257 34.6984C37.2126 34.7289 37.3681 34.8028 37.4687 34.868C37.5877 34.942 37.7843 35.1681 38.0313 35.5117C38.2874 35.877 38.4521 36.064 38.5573 36.1118C38.635 36.1509 38.7951 36.1857 38.9095 36.1857C39.0421 36.1901 39.1747 36.1596 39.2754 36.0987C39.376 36.0422 39.4766 35.9291 39.5452 35.7987C39.6275 35.6334 39.6504 35.5464 39.6275 35.4116C39.6092 35.2942 39.4766 35.0637 39.2159 34.6941C38.9872 34.3723 38.7219 34.0548 38.5619 33.92C38.4109 33.7896 38.1319 33.6156 37.9261 33.5199C37.7249 33.4286 37.4504 33.3329 37.3224 33.3068C37.1897 33.2807 36.9016 33.259 36.6821 33.2634C36.3893 33.2677 35.9548 33.3329 35.0904 33.4982C34.29 33.6547 33.8646 33.7591 33.7869 33.8156ZM24.5479 34.581C24.8727 34.5941 24.9321 34.6115 25.577 34.9202C26.1076 35.1725 26.3088 35.2942 26.4598 35.4508C26.565 35.5595 26.6839 35.7247 26.7205 35.8161C26.7616 35.903 26.8028 36.077 26.8165 36.1944C26.8348 36.364 26.7891 36.6032 26.6107 37.2946C26.4826 37.7774 26.3454 38.234 26.3088 38.3036C26.2722 38.3731 26.1625 38.5166 26.0664 38.6123C25.9749 38.7123 25.8149 38.8341 25.7142 38.8819C25.5999 38.9341 25.2569 39.0081 24.8224 39.0689C24.4336 39.1255 23.9899 39.1733 23.839 39.1733C23.6423 39.1733 23.496 39.1429 23.3222 39.0646C23.1941 39.0037 23.0066 38.8819 22.9151 38.7906C22.7825 38.6645 22.6544 38.4253 22.3937 37.8426C22.2016 37.4164 22.0278 36.9859 22.0095 36.8902C21.9912 36.7771 22.0049 36.6162 22.0553 36.4336C22.0964 36.277 22.1833 36.0813 22.2474 35.9987C22.3114 35.9161 22.6224 35.6421 22.938 35.3899C23.2536 35.1377 23.5829 34.8811 23.6744 34.8159C23.7658 34.7506 23.9213 34.668 24.022 34.6332C24.1455 34.5854 24.3147 34.568 24.5479 34.581ZM37.9718 22.8133L39.1107 23.3482C40.0392 23.7874 40.2953 23.9266 40.4874 24.1049C40.62 24.231 40.7801 24.4354 40.8533 24.5832C40.9539 24.7833 40.9859 24.9268 41.0042 25.1921C41.0225 25.5139 40.9951 25.6443 40.6475 26.9533C40.4417 27.7317 40.2404 28.4449 40.1947 28.5406C40.1489 28.6363 40.0483 28.7928 39.9751 28.8885C39.902 28.9842 39.7282 29.132 39.5909 29.219C39.4537 29.306 39.2296 29.4104 39.0924 29.4495C38.9552 29.4843 38.3149 29.5887 37.6746 29.6756C36.833 29.7887 36.4305 29.8235 36.2338 29.8061C36.0829 29.7887 35.8359 29.7235 35.685 29.6582C35.534 29.5887 35.3282 29.4669 35.2276 29.3799C35.127 29.2973 34.9715 29.0929 34.88 28.9276C34.7885 28.7624 34.5004 28.1579 34.2443 27.5839C33.9881 27.0098 33.7549 26.4315 33.732 26.301C33.7 26.1357 33.7046 25.9748 33.7411 25.7791C33.7732 25.6226 33.8372 25.4182 33.8875 25.3225C33.9378 25.2269 34.0247 25.092 34.0796 25.0181C34.1299 24.9485 34.6925 24.4832 35.3191 23.9831C35.9503 23.483 36.5448 23.0351 36.6455 22.9872C36.7461 22.9351 36.9107 22.8698 37.0114 22.835C37.1257 22.8003 37.3407 22.7872 37.9718 22.8133Z" fill="#748B86"/>
</svg>
