<svg width="64" height="64" viewBox="0 0 64 64" fill="none" xmlns="http://www.w3.org/2000/svg">
<rect width="64" height="64" rx="32" fill="#F7FBF6"/>
<path d="M32.8445 22.0287C32.8239 22.041 32.8116 24.099 32.8157 26.5998L32.8239 31.1423H40.6925V23.7219C41.3928 23.7014 41.4423 23.6891 41.6071 23.5784C41.7018 23.5087 41.8254 23.3775 41.8749 23.2914C41.9284 23.2012 41.9778 23.0618 41.9943 22.9839C42.0067 22.906 41.9984 22.7666 41.9737 22.6764C41.949 22.5863 41.8625 22.4346 41.7842 22.3362C41.6812 22.2132 41.5741 22.1394 41.4134 22.082C41.191 22 41.0839 22 37.0342 22C34.7478 22 32.8651 22.0123 32.8445 22.0287ZM22.5042 22.1558C22.4135 22.1968 22.2817 22.3034 22.2075 22.3936C22.1334 22.4797 22.051 22.6272 22.0263 22.7174C22.0016 22.8076 21.9933 22.947 22.0057 23.0249C22.0222 23.1028 22.0757 23.2422 22.1293 23.3324C22.1952 23.4472 22.2899 23.5292 22.4465 23.6112C22.6319 23.7055 22.7184 23.7219 22.9903 23.7219H23.3075V31.1423H31.1349V22.082C22.9161 22.082 22.6607 22.0861 22.5042 22.1558ZM23.2663 36.5743V40.2845C22.6277 40.305 22.5577 40.3214 22.4094 40.4157C22.3147 40.4813 22.1993 40.592 22.154 40.6617C22.1087 40.7355 22.051 40.8708 22.0263 40.961C21.9974 41.0758 21.9974 41.1783 22.0263 41.3094C22.051 41.4119 22.1375 41.5718 22.2158 41.6661C22.3188 41.7932 22.4259 41.867 22.5866 41.9244C22.809 42.0064 22.9038 42.0064 26.9658 41.9941L31.1143 41.9859L31.1349 32.8641H23.2663V36.5743ZM32.8239 37.3943V41.9244C41.0427 41.9244 41.2981 41.9203 41.4546 41.8506C41.5453 41.8096 41.6812 41.703 41.7513 41.6128C41.8254 41.5226 41.9037 41.3709 41.9243 41.2684C41.949 41.166 41.949 41.0184 41.9325 40.9405C41.916 40.8626 41.879 40.7601 41.8584 40.715C41.8337 40.6699 41.7595 40.5838 41.6936 40.5223C41.6318 40.4608 41.5082 40.3829 41.4258 40.3501C41.3311 40.3091 41.1457 40.2845 40.9603 40.2845H40.6513V32.8641H32.8239V37.3943Z" fill="#748B86"/>
</svg>
