<svg width="64" height="64" viewBox="0 0 64 64" fill="none" xmlns="http://www.w3.org/2000/svg">
<rect width="64" height="64" rx="32" fill="#F7FBF6"/>
<path fill-rule="evenodd" clip-rule="evenodd" d="M41.5101 26.7151C41.6207 26.7904 41.7337 26.8673 41.8523 26.9404L41.8519 26.94C41.8675 26.8124 41.8868 26.6855 41.906 26.559C41.9477 26.2839 41.9891 26.0109 41.9924 25.7375C42.0065 24.5856 41.5623 23.6309 40.6907 22.8713C39.5104 21.8427 37.6484 21.7158 36.3206 22.5385C35.5585 23.0107 35.109 23.7236 34.6525 24.4476C34.5795 24.5634 34.5063 24.6796 34.4315 24.795C34.448 24.8011 34.4629 24.807 34.4767 24.8126C34.5048 24.8238 34.5285 24.8333 34.5529 24.8385C35.0233 24.9414 35.494 25.0435 35.9647 25.1455C36.9927 25.3684 38.0206 25.5912 39.0463 25.8233C39.6337 25.9564 40.2258 26.0927 40.7882 26.3017C41.0406 26.3956 41.2699 26.5516 41.5101 26.7151ZM36.9113 29.5738L36.9112 29.5738C36.0992 29.089 35.2876 28.6045 34.4789 28.115C34.4031 28.0692 34.3273 28.0232 34.2516 27.9773L34.2515 27.9772C33.9825 27.8139 33.7134 27.6506 33.441 27.4933C33.2766 27.3984 33.1148 27.2983 32.9526 27.198L32.9526 27.198C32.386 26.8476 31.8149 26.4945 31.1133 26.3499C31.572 26.0316 32.0373 25.8562 32.5448 25.7759C33.0294 25.699 33.4901 25.8076 33.9497 25.9159L33.9497 25.9159C34.0521 25.94 34.1545 25.9641 34.257 25.9862C35.3629 26.2238 36.4676 26.4659 37.5724 26.7081C38.3028 26.8682 39.0332 27.0283 39.764 27.1871C41.1584 27.4901 42.1888 28.9545 41.9708 30.3637C41.9188 30.6997 41.8037 31.0294 41.6867 31.3509C41.6082 31.5666 41.5103 31.7753 41.4165 31.9754L41.4165 31.9754C41.3756 32.0625 41.3355 32.1481 41.2981 32.2319H41.2977C39.8453 31.3253 38.3778 30.4493 36.9113 29.5738ZM32.8442 40.0595C33.4082 40.9949 34.2578 41.4663 35.1892 41.5019C36.1636 41.5055 36.8634 41.2161 37.4394 40.6448C38.5121 39.581 39.5824 38.5148 40.643 37.4388C41.3646 36.7066 41.6386 35.8181 41.4511 34.8067C41.2864 33.9159 40.7788 33.2597 40.0047 32.7973C38.9671 32.1774 37.9311 31.5547 36.8951 30.9321L36.8947 30.9319L36.8938 30.9314L36.8932 30.931L36.8926 30.9306C36.463 30.6724 36.0333 30.4142 35.6036 30.1562L35.5993 30.1536L35.5986 30.1532L35.5978 30.1528C34.3338 29.3939 33.0697 28.635 31.8052 27.8766C30.884 27.3241 29.9287 27.2755 28.9762 27.7552C27.5223 28.4874 27.0014 30.296 27.8467 31.7221C29.4982 34.5095 31.1708 37.2849 32.8442 40.0595ZM29.7358 41.9996C29.6437 41.9729 29.5502 41.9494 29.4566 41.926C29.2543 41.8752 29.0518 41.8245 28.8642 41.7404C27.9031 41.3101 27.3603 40.5528 27.1439 39.5238C26.9138 38.4314 26.6744 37.341 26.4349 36.2505L26.4349 36.2504L26.4349 36.2503C26.2267 35.302 26.0185 34.3537 25.8164 33.4042C25.6387 32.5686 25.8724 31.8129 26.36 31.0744C26.5259 31.8916 26.9451 32.5541 27.361 33.211C27.4759 33.3926 27.5906 33.5738 27.6996 33.7578C28.8921 35.7693 30.0987 37.7729 31.3053 39.7764L31.3054 39.7764L31.3054 39.7765L31.3054 39.7765L31.3069 39.7789C31.4592 40.0318 31.6115 40.2847 31.7637 40.5375C31.8658 40.707 31.9811 40.8685 32.1006 41.0359C32.157 41.1149 32.2143 41.1953 32.2717 41.2784C32.1352 41.3378 31.9997 41.4003 31.8642 41.4629C31.3698 41.691 30.8741 41.9198 30.3216 42H29.7358V41.9996ZM22 37.974C22.0158 37.8982 22.03 37.8219 22.0442 37.7456C22.0751 37.5794 22.1061 37.4132 22.153 37.2516C22.4133 36.3553 22.933 35.6443 23.7137 35.1298C23.957 34.9696 24.202 34.8122 24.4551 34.6498L24.4552 34.6498C24.5738 34.5736 24.6942 34.4964 24.8169 34.4171C24.8504 34.5692 24.8832 34.7178 24.9156 34.8641L24.9156 34.8641C24.9736 35.1266 25.03 35.382 25.0858 35.6376C25.1812 36.0766 25.2763 36.5156 25.3714 36.9546C25.5929 37.9771 25.8144 38.9995 26.0403 40.0207C26.1639 40.5802 26.4046 41.0896 26.7619 41.5415C26.8085 41.6006 26.8546 41.6603 26.9072 41.7284C26.9304 41.7586 26.955 41.7904 26.9815 41.8246C26.7474 41.8672 26.528 41.9072 26.313 41.9465C26.216 41.9642 26.12 41.9817 26.0238 41.9992H25.3988C25.3698 41.9939 25.3408 41.9889 25.3118 41.9838L25.3118 41.9838L25.3117 41.9838L25.3116 41.9837C25.2527 41.9734 25.1938 41.9631 25.1351 41.9511C23.576 41.6355 22.5612 40.7231 22.1186 39.1886C22.0827 39.0651 22.0584 38.9378 22.034 38.8106L22.034 38.8105C22.023 38.7531 22.0121 38.6956 22 38.6385V37.974Z" fill="#748B86"/>
</svg>
