<svg width="64" height="64" viewBox="0 0 64 64" fill="none" xmlns="http://www.w3.org/2000/svg">
<rect width="64" height="64" rx="32" fill="#F7FBF6"/>
<path fill-rule="evenodd" clip-rule="evenodd" d="M29.4675 21C29.6178 21 29.7338 21.0387 29.983 21.1762C30.1591 21.2794 30.4126 21.4427 30.5415 21.5458C30.6704 21.649 30.8422 21.8037 30.9195 21.8896C30.9969 21.9799 31.1343 22.1561 31.2246 22.285C31.3148 22.4139 31.4265 22.5987 31.478 22.6933C31.5253 22.7878 31.6026 22.9898 31.6499 23.1446C31.6971 23.2993 31.7487 23.4755 31.7616 23.5442C31.7831 23.6345 31.8174 23.6646 31.9248 23.6818C32.0021 23.6904 32.2298 23.7806 32.4318 23.8795C32.7153 24.0213 32.8742 24.1373 33.1449 24.4081C33.4198 24.6831 33.5315 24.8336 33.6733 25.1215C33.7721 25.3235 33.8795 25.6243 33.9139 25.7877C33.9483 25.951 33.9783 26.2131 33.9783 26.3678C33.9783 26.5226 33.9483 26.7847 33.9139 26.948C33.8795 27.1113 33.7721 27.4122 33.6733 27.6142C33.5315 27.9021 33.4155 28.0525 33.1449 28.3276C32.8699 28.5984 32.7196 28.7144 32.4318 28.8562C32.2298 28.9551 31.9291 29.0625 31.7659 29.0969C31.6026 29.1313 31.3406 29.1614 31.1859 29.1614C31.0312 29.1614 30.7692 29.1313 30.6059 29.0969C30.4427 29.0625 30.142 28.9551 29.9401 28.8562C29.6522 28.7144 29.5019 28.5984 29.2269 28.3276C28.9563 28.0525 28.8403 27.9021 28.6985 27.6142C28.5997 27.4122 28.4923 27.1113 28.4579 26.948C28.4236 26.7847 28.3935 26.5226 28.3935 26.3678C28.3935 26.2131 28.4236 25.951 28.4579 25.7877C28.4923 25.6243 28.604 25.3235 28.7028 25.1215C28.8274 24.8679 28.9734 24.6617 29.1711 24.4554C29.33 24.292 29.562 24.0901 29.6909 24.017C29.8155 23.9396 30.0346 23.8279 30.1763 23.7677C30.3954 23.6775 30.4341 23.6474 30.4212 23.5657C30.4169 23.5099 30.3611 23.3594 30.2966 23.2305C30.2322 23.1016 30.0646 22.8781 29.9229 22.732C29.7682 22.5816 29.5276 22.4011 29.3386 22.3022C29.0937 22.169 28.9949 22.0873 28.9219 21.9584C28.866 21.8681 28.8231 21.7263 28.8231 21.649C28.8231 21.5759 28.8575 21.4384 28.8961 21.3524C28.9391 21.2665 29.0422 21.1504 29.1238 21.0988C29.2226 21.0344 29.3429 21 29.4675 21ZM39.0047 22.9555C39.0863 22.9684 39.2496 23.0371 39.3699 23.1102C39.4858 23.1832 39.7479 23.3637 39.9498 23.5099C40.1517 23.6603 40.5298 23.9998 40.7875 24.2663C41.0926 24.58 41.3804 24.9367 41.5909 25.2504C41.7713 25.5212 42.0291 25.9682 42.158 26.2389C42.2869 26.5097 42.4716 26.9652 42.5661 27.2489C42.6606 27.5325 42.7766 27.958 42.8239 28.1944C42.8711 28.4307 42.9313 28.7875 42.957 28.9895C42.9785 29.1914 43 29.4966 43 29.6685C43 29.8361 42.9785 30.167 42.9527 30.3948C42.927 30.6269 42.8711 30.9922 42.8239 31.2028C42.7766 31.4134 42.6778 31.7658 42.6091 31.9764C42.536 32.1869 42.3857 32.5566 42.2697 32.7929C42.158 33.0293 41.9088 33.4548 41.7198 33.7384C41.5308 34.0221 41.2129 34.439 41.0109 34.6624C40.8133 34.8859 40.5169 35.1868 40.3536 35.3329C40.1904 35.4747 39.9326 35.6896 39.778 35.8099C39.6233 35.926 39.4128 36.0764 39.3054 36.1365C39.1851 36.2053 39.0476 36.2526 38.9402 36.2526C38.8286 36.2526 38.1627 36.042 36.9856 35.6337C36.0061 35.2899 35.1683 35.002 35.1254 34.9891C35.0566 34.9633 35.0523 35.0535 35.0309 37.9072L34.9192 38.1221C34.859 38.2381 34.7129 38.4186 34.597 38.5218C34.481 38.6206 34.3005 38.7324 34.1931 38.7668C34.0857 38.8054 33.8924 38.8312 33.7635 38.8312C33.6346 38.8312 33.4413 38.8054 33.3339 38.7668C33.2265 38.7324 33.0461 38.6206 32.9301 38.5218C32.8141 38.4186 32.668 38.2381 32.4962 37.9072L32.4532 34.0522L26.9328 32.1311C23.8955 31.0738 21.3695 30.1842 21.3136 30.1584C21.2621 30.1283 21.1718 30.0424 21.1117 29.965C21.0344 29.8619 21.0043 29.7716 21.0043 29.6126C21 29.4235 21.0215 29.3762 21.1632 29.2172C21.3265 29.0324 21.3265 29.0324 24.2263 28.0268C25.8202 27.4724 27.1304 27.0211 27.1347 27.0254C27.139 27.0297 27.182 27.1887 27.2335 27.3778C27.2808 27.5669 27.3925 27.8763 27.4827 28.0654C27.5729 28.2545 27.7319 28.5339 27.835 28.6886C27.9381 28.8433 28.1529 29.0926 28.3076 29.2473C28.4622 29.402 28.7114 29.6169 28.866 29.7201C29.0207 29.8232 29.2999 29.9822 29.489 30.0682C29.678 30.1584 29.9873 30.2745 30.1763 30.326C30.4556 30.4034 30.6403 30.4206 31.1644 30.4249C31.71 30.4292 31.8647 30.412 32.174 30.3303C32.3759 30.2745 32.6938 30.1584 32.8828 30.0682C33.0719 29.9822 33.3511 29.8232 33.5058 29.7201C33.6604 29.6169 33.9096 29.402 34.0642 29.2473C34.2189 29.0926 34.4337 28.8433 34.5368 28.6886C34.6399 28.5339 34.7989 28.2545 34.8848 28.0654C34.975 27.8763 35.091 27.5583 35.1468 27.3563C35.2285 27.0512 35.2457 26.8879 35.2414 26.3678C35.2414 25.8607 35.2199 25.6759 35.1426 25.3794C35.091 25.1774 34.9793 24.8679 34.8977 24.6917C34.8161 24.5155 34.7559 24.3651 34.7645 24.3608C34.7688 24.3565 35.6151 24.06 36.6419 23.699C37.6686 23.3423 38.588 23.0199 38.6825 22.9898C38.777 22.9598 38.9231 22.9426 39.0047 22.9555ZM38.2615 26.3593C38.197 26.4237 38.1197 26.5441 38.0939 26.6257C38.0682 26.7074 38.0596 26.8449 38.0724 26.9265C38.0896 27.0082 38.1369 27.1285 38.1884 27.193C38.2357 27.2618 38.3345 27.3434 38.4032 27.3778C38.472 27.4122 38.6137 27.4423 38.7169 27.4423C38.8328 27.4423 38.9488 27.4122 39.0476 27.3477C39.1293 27.2919 39.2324 27.1801 39.2753 27.0985C39.3312 26.991 39.3484 26.8922 39.3312 26.7546C39.3183 26.6472 39.2753 26.514 39.2324 26.4581C39.1894 26.4022 39.1078 26.3206 39.0476 26.2776C38.9875 26.2346 38.8715 26.1916 38.7899 26.1787C38.7083 26.1659 38.5794 26.1744 38.5106 26.2002C38.4419 26.2217 38.3259 26.2905 38.2615 26.3593ZM35.6839 28.9379C35.6194 29.0023 35.5421 29.1227 35.5163 29.2043C35.4905 29.286 35.4819 29.4235 35.4948 29.5052C35.512 29.5868 35.5593 29.7072 35.6108 29.7716C35.6581 29.8404 35.7569 29.9221 35.8256 29.9564C35.8944 29.9908 36.0361 30.0209 36.1392 30.0209C36.2552 30.0209 36.3712 29.9908 36.47 29.9264C36.5517 29.8705 36.6548 29.7587 36.6977 29.6771C36.7536 29.5696 36.7707 29.4708 36.7536 29.3333C36.7407 29.2258 36.6977 29.0926 36.6548 29.0367C36.6118 28.9809 36.5302 28.8992 36.47 28.8562C36.4099 28.8132 36.2939 28.7703 36.2123 28.7574C36.1306 28.7445 36.0018 28.7531 35.933 28.7789C35.8643 28.8004 35.7483 28.8691 35.6839 28.9379ZM39.1207 29.3677C39.0562 29.4321 38.9789 29.5525 38.9531 29.6341C38.9274 29.7158 38.9188 29.8533 38.9317 29.9349C38.9488 30.0166 38.9961 30.1369 39.0476 30.2014C39.0949 30.2702 39.1937 30.3518 39.2624 30.3862C39.3312 30.4206 39.473 30.4507 39.5761 30.4507C39.6921 30.4507 39.808 30.4206 39.9069 30.3561C39.9885 30.3003 40.0916 30.1885 40.1345 30.1069C40.1904 29.9994 40.2076 29.9006 40.1904 29.763C40.1775 29.6556 40.1345 29.5224 40.0916 29.4665C40.0486 29.4106 39.967 29.329 39.9069 29.286C39.8467 29.243 39.7307 29.2 39.6491 29.1871C39.5675 29.1743 39.4386 29.1828 39.3699 29.2086C39.3011 29.2301 39.1851 29.2989 39.1207 29.3677ZM36.9727 31.9463C36.9082 32.0107 36.8309 32.1311 36.8051 32.2127C36.7793 32.2944 36.7707 32.4319 36.7836 32.5136C36.8008 32.5952 36.8481 32.7156 36.8996 32.78C36.9469 32.8488 37.0457 32.9305 37.1144 32.9648C37.1832 32.9992 37.3249 33.0293 37.428 33.0293C37.544 33.0293 37.66 32.9992 37.7588 32.9348C37.8405 32.8789 37.9436 32.7671 37.9865 32.6855C38.0424 32.578 38.0596 32.4792 38.0424 32.3417C38.0295 32.2342 37.9865 32.101 37.9436 32.0451C37.9006 31.9893 37.819 31.9076 37.7588 31.8646C37.6987 31.8216 37.5827 31.7787 37.5011 31.7658C37.4195 31.7529 37.2906 31.7615 37.2218 31.7873C37.1531 31.8088 37.0371 31.8775 36.9727 31.9463ZM21.0129 31.4391C21.0215 31.4391 23.307 32.2299 26.0951 33.2012C28.8832 34.1725 31.1687 34.9719 31.173 34.9762C31.1816 34.9805 31.1816 35.4317 31.1644 36.966L21.0258 33.4333L21.0129 32.4362C21.0086 31.8861 21.0086 31.4391 21.0129 31.4391ZM42.9785 34.1854L42.9914 36.3901C43 38.1221 42.9871 38.698 42.9399 39.0676C42.9055 39.3298 42.8282 39.7165 42.7637 39.9271C42.7036 40.142 42.5661 40.4901 42.463 40.7007C42.3556 40.9156 42.1451 41.2465 41.9904 41.4442C41.8358 41.6376 41.5694 41.9127 41.3976 42.0545C41.23 42.192 40.9422 42.394 40.7661 42.4929C40.5899 42.596 40.2634 42.7507 40.0443 42.8367C39.8295 42.9269 39.6319 43 39.6061 43C39.5761 43 39.5632 42.0459 39.5632 37.4559L39.808 37.3313C39.9455 37.2626 40.2591 37.0563 40.5083 36.8715C40.7575 36.6867 41.1785 36.3214 41.4491 36.0592C41.7155 35.8013 42.0849 35.4016 42.2654 35.1782C42.4458 34.9547 42.6821 34.6366 42.7852 34.4776L42.9785 34.1854ZM21 34.7957L21.9151 35.1094C22.4177 35.2856 23.8053 35.7669 24.9996 36.1838C26.1939 36.5964 28.1013 37.2626 31.3105 38.38L31.4823 38.7238C31.5854 38.9387 31.7444 39.1621 31.8905 39.3169C32.0236 39.4501 32.2513 39.6392 32.4017 39.7337C32.5477 39.8283 32.784 39.9486 32.9258 39.9959C33.0976 40.0561 33.3382 40.0947 33.6346 40.1076C33.9697 40.1248 34.1588 40.1119 34.365 40.0604C34.5196 40.0217 34.7645 39.9314 35.1812 39.7337L38.2529 40.7996L38.2658 41.8783C38.2744 42.8883 38.2701 42.957 38.2013 42.9312C38.1584 42.9183 34.4337 41.6204 29.9186 40.0475C25.4077 38.4745 21.6143 37.1508 21.4897 37.1078C21.3351 37.052 21.2191 36.9746 21.0043 36.7038L21 34.7957ZM36.3454 36.7769L37.1918 37.0692C37.6557 37.2325 38.0896 37.3872 38.2744 37.4559V38.4444C38.2744 39.218 38.2615 39.4329 38.2185 39.42C38.1927 39.4114 37.6987 39.2438 37.123 39.0461C36.2896 38.7539 36.0877 38.6679 36.1092 38.6163C36.1263 38.5819 36.1779 38.4487 36.2252 38.3155C36.2896 38.135 36.3111 37.9373 36.3283 37.4302L36.3454 36.7769Z" fill="#748B86"/>
</svg>
