<svg width="64" height="64" viewBox="0 0 64 64" fill="none" xmlns="http://www.w3.org/2000/svg">
<rect width="64" height="64" rx="32" fill="#F7FBF6"/>
<path fill-rule="evenodd" clip-rule="evenodd" d="M32.6242 22.0568L31.2708 22.3885V25.4802H25.5C25.2239 25.4802 25 25.704 25 25.9802V28.1313C25 28.4074 25.2239 28.6313 25.5 28.6313H38.5C38.7761 28.6313 39 28.4074 39 28.1313V25.9673C39 25.6911 38.7761 25.4673 38.5 25.4673H32.7364V23.5281L33.3021 23.3865C34.3983 23.1122 35.4914 22.8386 36.5948 22.5624C36.982 22.4654 37.215 22.0679 37.1144 21.6816C37.0155 21.3017 36.6307 21.075 36.2494 21.1685C35.0368 21.4656 33.832 21.7609 32.6242 22.0568ZM27.8124 42.2681C27.9935 42.6861 28.392 42.8734 28.81 43L35.1478 42.9996C35.1527 42.9958 35.1575 42.9913 35.1624 42.9869C35.1734 42.9768 35.1845 42.9667 35.1972 42.9634C35.8744 42.7852 36.2307 42.3249 36.327 41.6429C36.4971 40.4384 36.6653 39.2334 36.8335 38.0284C36.9085 37.4908 36.9836 36.9533 37.0588 36.4158L37.1076 36.0672C37.3423 34.3911 37.577 32.7154 37.811 31.0397C37.8484 30.7701 37.8846 30.5002 37.9215 30.2256C37.9471 30.0349 37.7987 29.8652 37.6062 29.8652H26.0186C25.992 29.8652 25.9703 29.8868 25.9694 29.9134C25.9684 29.9444 25.9675 29.9724 25.9713 29.9995C26.1119 31.0126 26.2534 32.0252 26.3953 33.0382C26.4831 33.6661 26.5707 34.2939 26.6584 34.9218C26.9513 37.0211 27.2442 39.1203 27.5447 41.2184C27.5959 41.5749 27.6704 41.9409 27.8124 42.2681Z" fill="#748B86"/>
</svg>
