<svg width="64" height="64" viewBox="0 0 64 64" fill="none" xmlns="http://www.w3.org/2000/svg">
<rect width="64" height="64" rx="32" fill="#F7FBF6"/>
<path d="M29.052 21.0391C29.0048 21.0563 28.7727 21.1251 28.5363 21.1895C28.2998 21.2497 27.9302 21.3873 27.7196 21.4904C27.509 21.5893 27.2253 21.7612 27.0963 21.8644C26.9674 21.9676 26.7697 22.1868 26.6622 22.3501C26.5504 22.5178 26.4129 22.7843 26.3527 22.9519C26.2968 23.1195 26.2367 23.3345 26.2195 23.4376C26.1937 23.6096 26.1851 23.6225 26.0132 23.6655C25.91 23.6869 25.7295 23.7385 25.6134 23.7772C25.4974 23.8159 25.2996 23.8933 25.1836 23.9534C25.0675 24.0136 24.8526 24.1383 24.7108 24.2371C24.5689 24.3317 24.3454 24.5165 24.2165 24.6498C24.0832 24.7788 23.8984 25.0023 23.8038 25.1441C23.705 25.286 23.576 25.5052 23.5116 25.6298C23.4514 25.7502 23.3525 26.021 23.2923 26.2273C23.2107 26.5067 23.172 26.7775 23.1419 27.2504C23.1204 27.6028 23.0731 28.037 23.0344 28.2089C23.0001 28.3766 22.9313 28.6388 22.8797 28.7849C22.8324 28.9354 22.7293 29.1933 22.6519 29.3566C22.5745 29.52 22.351 29.8982 22.1533 30.1948C21.9556 30.4914 21.7192 30.8697 21.6332 31.033C21.5429 31.1964 21.3925 31.566 21.2979 31.8497C21.1991 32.1463 21.0959 32.5762 21.0529 32.8599C21.0014 33.2295 20.9885 33.496 21.0099 33.913C21.0228 34.2182 21.0658 34.6179 21.1002 34.7942C21.1346 34.9704 21.2163 35.2713 21.2807 35.4604C21.3409 35.6496 21.457 35.9505 21.5386 36.1267C21.6203 36.3029 21.8137 36.6425 21.9685 36.8789C22.1533 37.1583 22.4112 37.4678 22.7078 37.7644C23.0172 38.0739 23.3138 38.3189 23.6362 38.5295C23.8941 38.6972 24.1348 38.8347 24.1606 38.8347C24.1907 38.8347 24.2165 38.8003 24.2165 38.7574C24.2165 38.7187 24.2938 38.5295 24.3884 38.3404C24.483 38.147 24.6678 37.8762 24.8053 37.7214C24.9429 37.5667 25.2008 37.3475 25.377 37.2357C25.5532 37.1196 25.8154 36.9907 25.9573 36.9434C26.0991 36.8961 26.3398 36.8402 26.4946 36.8187C26.6493 36.7973 26.9201 36.7629 27.0963 36.7457L27.4187 36.7156C27.1393 36.0106 26.9932 35.5421 26.9072 35.224C26.8255 34.9059 26.7224 34.4202 26.6794 34.1494C26.6278 33.8141 26.6063 33.3929 26.6063 32.8384C26.602 32.3913 26.6278 31.8454 26.6579 31.6348C26.688 31.4242 26.7525 31.0846 26.7997 30.8826C26.8427 30.6805 26.9416 30.3324 27.0147 30.1088C27.0877 29.8853 27.2511 29.4899 27.3757 29.2277C27.5047 28.9655 27.7282 28.5829 27.8786 28.368C28.0291 28.1573 28.3256 27.8092 28.5363 27.5942C28.7512 27.3836 29.0606 27.1171 29.224 27.0054C29.3916 26.8979 29.714 26.7174 29.9461 26.6099L30.363 26.4122C30.2556 26.064 30.1739 25.8448 30.1094 25.7029C30.045 25.5611 29.916 25.329 29.8171 25.1871C29.7226 25.0453 29.5206 24.8045 29.3701 24.6541C29.2197 24.5037 28.9575 24.2887 28.7941 24.1813C28.6308 24.0695 28.3385 23.9191 28.1494 23.846C27.9603 23.7729 27.7325 23.6998 27.6422 23.6869C27.4961 23.6612 27.4832 23.6526 27.509 23.5408C27.5262 23.4763 27.582 23.3388 27.6379 23.2313C27.6895 23.1238 27.7969 22.9777 27.8786 22.9003C27.956 22.8273 28.1451 22.7069 28.2998 22.6338C28.4546 22.5607 28.8027 22.449 29.0735 22.3802C29.3443 22.3114 29.6323 22.2212 29.7097 22.1825C29.7914 22.1438 29.8816 22.0406 29.9332 21.9418C29.9805 21.8472 30.0192 21.7096 30.0192 21.6409C30.0192 21.5678 29.9848 21.4388 29.9375 21.3486C29.8945 21.2626 29.7871 21.1466 29.7011 21.0907C29.5936 21.0262 29.4819 20.9961 29.34 21.0004C29.2283 21.0004 29.0993 21.0176 29.052 21.0391ZM37.6701 37.0552C37.3735 37.0853 37.0984 37.111 37.0555 37.111C36.9867 37.1153 36.9824 37.1927 36.9824 38.0825C36.9824 38.9637 36.9738 39.0668 36.8964 39.2216C36.8391 39.3362 36.7532 39.4222 36.6385 39.4795C36.544 39.5268 36.4064 39.5655 36.3377 39.5655C36.2689 39.5655 36.1313 39.5268 36.0368 39.4795C35.9221 39.4222 35.8362 39.3362 35.7789 39.2216C35.7015 39.0668 35.6929 38.9637 35.6929 38.147C35.6929 37.6484 35.68 37.2443 35.6585 37.2443C35.6413 37.2443 33.5867 37.4377 31.0937 37.6741C28.0462 37.9578 26.4946 38.1212 26.3656 38.1685C26.2582 38.2029 26.0862 38.2974 25.9788 38.3748C25.8713 38.4522 25.7209 38.6112 25.6435 38.7316C25.5661 38.8476 25.4759 39.0368 25.4372 39.1571C25.3985 39.3033 25.377 39.5741 25.377 39.9953C25.377 40.4166 25.3985 40.6874 25.4372 40.8335C25.4759 40.9496 25.5661 41.143 25.6435 41.2591C25.7209 41.3751 25.8713 41.5342 25.9788 41.6115C26.0862 41.6889 26.2582 41.7835 26.3656 41.8222C26.4903 41.8651 27.1952 41.9511 28.3643 42.0586C29.3572 42.1531 30.2513 42.2391 30.3544 42.252L30.535 42.2735C30.535 41.0269 30.5479 40.9195 30.6209 40.769C30.6782 40.6544 30.7642 40.5684 30.8788 40.5111C30.9734 40.4638 31.1066 40.4252 31.1797 40.4252C31.2528 40.4252 31.386 40.4638 31.4806 40.5111C31.5952 40.5684 31.6812 40.6544 31.7385 40.769C31.8158 40.9195 31.8244 41.0269 31.8244 41.6717C31.8244 42.3724 31.8287 42.4025 31.9104 42.4025C31.9577 42.4025 33.3374 42.5314 34.9751 42.6905C36.6084 42.8495 38.1343 42.987 38.3578 42.9956C38.6974 43.0085 38.8135 42.9956 39.0456 42.9183C39.2003 42.8667 39.4109 42.7678 39.5184 42.699C39.6258 42.6346 39.7806 42.5056 39.8665 42.4153C39.9525 42.3251 40.0729 42.1703 40.1373 42.0672C40.1975 41.9683 40.2835 41.7835 40.3265 41.6545L40.3995 41.4224C41.2334 42.1832 41.5472 42.4411 41.6374 42.4884C41.7234 42.5357 41.8567 42.5744 41.9254 42.5744C41.9942 42.5744 42.1317 42.5357 42.2263 42.4884C42.3409 42.4311 42.4269 42.3451 42.4842 42.2305C42.5315 42.136 42.5702 41.9941 42.5702 41.9167C42.5659 41.8437 42.5315 41.719 42.4928 41.6416C42.4541 41.5643 42.2091 41.3149 41.9512 41.0828L41.4784 40.6616C42.4111 40.6229 42.5831 40.5971 42.6905 40.5412C42.7679 40.5025 42.8668 40.3908 42.914 40.2962C42.9613 40.2016 43 40.0641 43 39.9953C43 39.9222 42.9613 39.789 42.914 39.6944C42.8668 39.5999 42.7679 39.4881 42.6905 39.4451C42.5831 39.3935 42.4111 39.3677 42.0157 39.3505L41.4784 39.3291C42.2091 38.6757 42.4541 38.4264 42.4928 38.349C42.5315 38.2716 42.5659 38.147 42.5702 38.0696C42.5702 37.9965 42.5315 37.8547 42.4842 37.7601C42.4269 37.6455 42.3409 37.5595 42.2263 37.5022C42.1317 37.4549 41.9942 37.4162 41.9254 37.4162C41.8567 37.4162 41.7234 37.4549 41.6374 37.5022C41.5472 37.5495 41.2334 37.8074 40.9368 38.0782L40.3995 38.5682C40.2749 38.19 40.176 37.9836 40.103 37.8676C40.0256 37.7472 39.8751 37.5753 39.7677 37.4807C39.6602 37.3861 39.4711 37.2572 39.3422 37.197C39.2132 37.1325 39.0069 37.0595 38.8865 37.0337C38.7619 37.0079 38.5556 36.9907 38.4352 36.9907C38.3106 36.995 37.9667 37.0208 37.6701 37.0552ZM36.5741 25.0109C36.3634 25.0882 36.1012 25.1914 35.9938 25.2387C35.8863 25.2817 35.6843 25.3977 35.5425 25.488C35.4006 25.5783 35.2029 25.7201 35.0997 25.8061C34.9966 25.8921 34.8247 26.0769 34.7172 26.2187C34.6097 26.3606 34.4464 26.6314 34.3561 26.8205C34.2659 27.0097 34.1541 27.3191 34.1068 27.5083C34.0553 27.6974 34.0166 27.8865 34.0166 27.9252C34.0166 27.9682 33.9994 28.0112 33.9736 28.0241C33.9478 28.037 33.7802 27.9682 33.5996 27.8779C33.4148 27.7834 33.1483 27.6673 33.0065 27.6243C32.8646 27.5771 32.5852 27.5169 32.3832 27.4868C32.1683 27.4524 31.876 27.4438 31.674 27.461C31.4849 27.4739 31.1883 27.5255 31.0207 27.5728C30.8487 27.62 30.5865 27.7189 30.4404 27.792C30.29 27.8651 30.0535 28.0069 29.9117 28.1101C29.7699 28.2089 29.5163 28.4367 29.3529 28.6087C29.1853 28.7849 28.9704 29.0514 28.8672 29.2062C28.7641 29.3609 28.605 29.6403 28.5148 29.8294C28.4202 30.0186 28.2913 30.3453 28.2225 30.5602C28.1494 30.7708 28.0634 31.1018 28.0248 31.2909C27.9861 31.4801 27.9388 31.8067 27.913 32.0217C27.8915 32.2323 27.87 32.5805 27.87 32.7954C27.87 33.006 27.8915 33.3671 27.913 33.5906C27.9388 33.8141 27.999 34.201 28.0462 34.4503C28.0978 34.6996 28.2053 35.1037 28.287 35.353C28.3643 35.6023 28.5191 35.9848 28.6222 36.1998L28.8156 36.5995C29.0649 36.5651 29.9805 36.4792 31.0078 36.3846C32.0351 36.29 33.1784 36.1826 33.5438 36.1482C33.9091 36.1138 35.1384 35.9977 36.2732 35.8903C37.4079 35.7828 38.4395 35.6969 38.5642 35.6969C38.6845 35.6969 38.9381 35.7269 39.1229 35.7656C39.3035 35.8043 39.5528 35.8731 39.6688 35.9204C39.7892 35.9677 39.9955 36.0751 40.1373 36.1611C40.348 36.2943 40.3952 36.3115 40.4253 36.2557C40.4468 36.2213 40.5414 35.9977 40.6316 35.7613C40.7262 35.5249 40.8509 35.1381 40.9153 34.9016C40.9755 34.6652 41.0529 34.2956 41.0873 34.0849C41.1259 33.87 41.1646 33.4445 41.1775 33.1393C41.1947 32.8126 41.1861 32.3741 41.156 32.0861C41.1259 31.8153 41.0701 31.4285 41.0271 31.2264C40.9798 31.0244 40.8938 30.7063 40.8294 30.5172C40.7692 30.3281 40.6402 30.0186 40.55 29.8294C40.4597 29.6403 40.3007 29.3609 40.1975 29.2062C40.0944 29.0514 39.8794 28.7849 39.7118 28.6087C39.5485 28.4367 39.2949 28.2089 39.153 28.1101C39.0112 28.0069 38.7748 27.8651 38.6286 27.792C38.4782 27.7189 38.216 27.62 38.0484 27.5728C37.8764 27.5255 37.5584 27.4739 37.3477 27.4567C37.107 27.4438 36.8363 27.4524 36.6385 27.4868C36.4623 27.5169 36.2087 27.5771 36.0798 27.62C35.9508 27.663 35.7488 27.7404 35.6284 27.792C35.5124 27.8479 35.3963 27.8994 35.3705 27.9123C35.3447 27.9252 35.3404 27.8779 35.3619 27.7834C35.3791 27.7017 35.4479 27.5212 35.5124 27.3793C35.5769 27.2375 35.7187 27.0268 35.8219 26.9108C35.9293 26.799 36.1227 26.64 36.2517 26.5626C36.3806 26.4895 36.6815 26.352 36.9179 26.2617C37.1543 26.1758 37.3993 26.0769 37.4681 26.0425C37.5326 26.0081 37.6228 25.905 37.6701 25.8104C37.7174 25.7158 37.7561 25.574 37.7561 25.4966C37.7561 25.4235 37.7217 25.2903 37.6744 25.2086C37.6314 25.1269 37.5197 25.0152 37.4294 24.9636C37.3392 24.9077 37.193 24.8647 37.1113 24.869C37.0297 24.869 36.7847 24.9335 36.5741 25.0109Z" fill="#748B86"/>
</svg>
