<svg width="64" height="64" viewBox="0 0 64 64" fill="none" xmlns="http://www.w3.org/2000/svg">
<rect width="64" height="64" rx="32" fill="#F7FBF6"/>
<path fill-rule="evenodd" clip-rule="evenodd" d="M32.005 21C32.1822 21 32.2877 21.0301 32.4481 21.1246C32.5662 21.1891 32.7688 21.3695 32.908 21.5199C33.0726 21.7047 33.2287 21.941 33.3764 22.2461C33.4946 22.4953 33.6718 22.9379 33.7689 23.2344C33.8617 23.5309 33.9883 24.0035 34.0474 24.2871C34.1023 24.5707 34.1824 25.0262 34.2162 25.2969C34.2542 25.5676 34.3006 26.0617 34.3259 26.3926C34.347 26.7234 34.3681 27.2605 34.3681 28.1758L34.1656 28.15C33.9714 28.1199 33.9546 28.1285 33.06 28.7344L32.6042 28.4336C32.2624 28.2059 32.1147 28.1328 32.005 28.1328C31.891 28.1328 31.7518 28.2059 31.4015 28.4465C31.0007 28.7172 30.9374 28.7473 30.8867 28.6914C30.8319 28.6355 30.8361 28.5969 30.8909 28.3906C30.9247 28.2617 30.9669 27.9309 30.9796 27.6602C30.9964 27.282 30.988 27.0801 30.9331 26.8008C30.8909 26.5988 30.8023 26.2895 30.7306 26.1133C30.6631 25.9371 30.5196 25.6535 30.4099 25.4902C30.3044 25.327 30.1398 25.1035 29.8571 24.8027L29.9626 24.2871C30.0216 24.0035 30.1482 23.5309 30.2411 23.2344C30.3381 22.9379 30.5154 22.4953 30.6377 22.2461C30.7812 21.9496 30.9458 21.7004 31.1062 21.5199C31.2412 21.3695 31.4437 21.1891 31.5619 21.1246C31.7223 21.0301 31.8277 21 32.005 21ZM36.0139 24.4074C36.1869 24.416 36.3725 24.4633 36.5202 24.5277C36.6468 24.5879 36.8325 24.7211 36.9338 24.8285C37.0308 24.9316 37.1532 25.1164 37.2883 25.4473H37.6301C37.9128 25.4473 38.0183 25.4688 38.2082 25.559C38.3348 25.6191 38.5162 25.7438 38.6049 25.8383C38.6935 25.9285 38.8159 26.1133 38.8792 26.2422C38.9635 26.4313 38.9846 26.543 38.9846 26.8008C38.9846 27.0586 38.9635 27.1703 38.8792 27.3594C38.8201 27.4883 38.6893 27.673 38.5964 27.7676C38.4994 27.8621 38.3221 27.9867 38.1998 28.0469C38.031 28.1285 37.9719 28.1844 37.9423 28.2832C37.917 28.3863 37.8495 28.4422 37.5963 28.5754C37.4233 28.6613 37.2629 28.7344 37.2376 28.7344C37.2123 28.7344 36.9971 28.6012 36.7523 28.4336C36.4316 28.2188 36.2713 28.1328 36.17 28.1328C36.0898 28.1328 35.9548 28.1844 35.6341 28.3906V27.6602C35.6341 27.2605 35.613 26.6332 35.5877 26.2766C35.5623 25.9156 35.5075 25.3785 35.4653 25.082C35.4231 24.7855 35.3893 24.5406 35.3935 24.5363C35.3978 24.5277 35.4779 24.4934 35.5708 24.459C35.6805 24.416 35.8366 24.3988 36.0139 24.4074ZM27.342 25.0906C27.4813 25.0863 27.7176 25.1078 27.8695 25.1422C28.0214 25.1723 28.2577 25.2582 28.397 25.3313C28.5363 25.4 28.7515 25.5375 28.8696 25.6363C28.992 25.7309 29.1735 25.9328 29.2747 26.0832C29.376 26.2293 29.4984 26.4484 29.5448 26.5645C29.5954 26.6848 29.6587 26.9039 29.6883 27.0586C29.7178 27.2219 29.7305 27.4797 29.7178 27.6816C29.7009 27.8707 29.6714 28.077 29.6461 28.1457C29.6165 28.2188 29.4688 28.352 28.9034 28.7387L28.4476 28.4379C28.1269 28.2188 27.9581 28.1328 27.8569 28.1328C27.7598 28.1328 27.6037 28.2102 27.2787 28.4336C27.034 28.5969 26.8188 28.7344 26.7934 28.7344C26.7681 28.7387 26.3757 28.5883 25.9199 28.4035C25.46 28.2188 25.076 28.0383 25.0633 28.0039C25.0506 27.9695 25.0295 27.8063 25.0169 27.6387C25 27.441 25.0169 27.2262 25.0591 27.0156C25.0971 26.8395 25.1857 26.5687 25.2616 26.4141C25.3376 26.2594 25.5022 26.0187 25.633 25.8812C25.7596 25.7395 25.979 25.5504 26.1183 25.4602C26.2575 25.3699 26.4896 25.2582 26.6331 25.2152C26.7766 25.1723 26.9369 25.1293 26.9918 25.1164C27.0466 25.1035 27.2028 25.0906 27.342 25.0906ZM25.4093 29.4219C25.4979 29.4219 25.7638 29.5336 26.1394 29.7227C26.4643 29.8902 26.7555 30.0234 26.7808 30.0234C26.8103 30.0234 27.0298 29.8859 27.2661 29.7227C27.5994 29.4906 27.7345 29.4219 27.8484 29.4219C27.9623 29.4219 28.1058 29.4949 28.9034 30.0277L29.3465 29.727C29.6672 29.5078 29.8275 29.4219 29.9246 29.4219C30.0259 29.4219 30.1904 29.5035 30.9711 30.0277L31.4142 29.727C31.7518 29.4949 31.891 29.4219 32.005 29.4219C32.1147 29.4219 32.2624 29.4949 33.06 30.0234L33.503 29.7227C33.828 29.5035 33.9841 29.4219 34.0812 29.4219C34.1824 29.4219 34.3428 29.5078 35.1066 30.0277L35.5581 29.727C35.9041 29.4949 36.0476 29.4219 36.1616 29.4219C36.2755 29.4219 36.4147 29.4949 36.7523 29.7227C36.9971 29.8902 37.2123 30.0234 37.2376 30.0234C37.2629 30.0234 37.5457 29.8902 37.8706 29.7227C38.2293 29.5422 38.5162 29.4219 38.5964 29.4219C38.6893 29.4176 38.7779 29.4563 38.8496 29.5293C38.9171 29.5895 38.9762 29.6797 38.9889 29.7355C39.0015 29.7871 39.0057 32.7348 38.9889 42.7379L38.7357 43H25.2532L25 42.6992V36.2324C25 31.5574 25.0127 29.7398 25.0464 29.6668C25.0717 29.6152 25.135 29.5379 25.1857 29.4992C25.2321 29.4563 25.3376 29.4219 25.4093 29.4219ZM29.663 39.0254C29.5701 39.0812 29.4604 39.193 29.4224 39.2703C29.3844 39.3477 29.3507 39.4766 29.3465 39.5539C29.3465 39.627 29.3844 39.7645 29.4266 39.8547C29.4731 39.9449 29.5743 40.0523 29.6672 40.1082C29.8318 40.2027 29.8402 40.2027 31.9923 40.207C34.0727 40.207 34.1656 40.2027 34.3259 40.1211C34.4384 40.0638 34.5228 39.9779 34.5791 39.8633C34.6255 39.7687 34.6635 39.6313 34.6635 39.5625C34.6635 39.4937 34.6255 39.3563 34.5791 39.2617C34.5228 39.1471 34.4384 39.0612 34.3259 39.0039C34.1656 38.9223 34.0727 38.918 31.9923 38.918H29.8318L29.663 39.0254Z" fill="#748B86"/>
</svg>
