<svg width="64" height="64" viewBox="0 0 64 64" fill="none" xmlns="http://www.w3.org/2000/svg">
<rect width="64" height="64" rx="32" fill="#F7FBF6"/>
<path fill-rule="evenodd" clip-rule="evenodd" d="M22.0038 34.5282C25.2186 33.71 28.3975 33.7087 31.6123 34.5256C31.6991 30.9124 30.2699 28.129 27.3383 26.1017C27.3501 26.0863 27.3624 26.0702 27.3749 26.0537C27.4104 26.0071 27.4484 25.9572 27.4876 25.9084C27.6362 25.7234 27.7848 25.5384 27.9333 25.3533L27.9335 25.3531L27.9337 25.3528C28.3849 24.7907 28.8362 24.2285 29.2899 23.6683C29.5632 23.3313 29.6394 22.9623 29.4541 22.5662C29.268 22.1687 28.9344 21.9991 28.5036 22C27.3725 22.0026 26.241 22.0022 25.11 22C24.6792 21.9996 24.3464 22.1709 24.1603 22.5688C23.9793 22.9567 24.0461 23.3218 24.3143 23.6528C24.5423 23.934 24.7688 24.2163 24.9953 24.4986L24.9956 24.499L24.9959 24.4994C25.0646 24.585 25.1332 24.6706 25.202 24.7562C25.4384 25.0503 25.6747 25.3445 25.9095 25.6369L25.9107 25.6384L25.9111 25.6389C26.0351 25.7934 26.1587 25.9473 26.2817 26.1004C23.3445 28.1303 21.9157 30.9132 22.0038 34.5282ZM36.3873 36.3861H36.3873H36.3873C36.4956 36.3882 36.6038 36.3902 36.7119 36.3902L36.7115 36.3898C36.8371 36.3898 36.9627 36.3899 37.0883 36.39H37.0884H37.0896C37.3407 36.3902 37.5918 36.3904 37.843 36.3898C38.5189 36.3876 38.8953 36.0031 38.9065 35.3222C38.9078 35.2405 38.9087 35.1586 38.9096 35.0767L38.9096 35.0764C38.9134 34.7129 38.9173 34.3484 38.9617 33.9896C39.1011 32.8607 39.6033 31.9226 40.4101 31.1152C41.7889 29.7356 42.2757 28.0444 41.8518 26.1405C41.2242 23.3222 38.5557 21.587 35.7169 22.0915C33.0103 22.5726 31.0699 25.3202 31.4861 28.0617C31.6671 29.2531 32.1744 30.2677 33.0103 31.1221C33.6469 31.7728 34.1016 32.5323 34.3484 33.4152C34.5148 34.0099 34.555 34.6196 34.52 35.2298C34.4729 36.0454 35.0444 36.4416 35.666 36.395C35.9054 36.3771 36.1463 36.3816 36.3873 36.3861ZM22.1052 35.1651L22.1053 35.1651C22.1081 35.2122 22.1096 35.2497 22.1108 35.2812C22.113 35.3354 22.1144 35.3714 22.1206 35.4063C22.6314 38.2376 24.1017 40.4021 26.5435 41.8944C26.73 42.0083 26.8926 42.007 27.0795 41.8952C28.0763 41.2997 28.9387 40.5502 29.6548 39.631C30.6186 38.3938 31.2222 36.9952 31.4985 35.4482C31.5302 35.2721 31.4938 35.1875 31.309 35.156C31.0082 35.1046 30.7082 35.0477 30.4081 34.9909L30.4081 34.9909C29.87 34.8889 29.3321 34.787 28.7902 34.7163C27.459 34.5424 26.1191 34.548 24.7879 34.7189C24.1735 34.7976 23.5631 34.9069 22.9471 35.0172C22.6679 35.0672 22.3876 35.1174 22.1053 35.1651L22.1052 35.1647V35.1651ZM38.2892 38.8365V37.0647H35.1411V38.8361C34.3852 39.0821 33.9335 39.5753 33.9091 40.3732C33.8894 41.024 34.194 41.5297 34.7762 41.8167C35.5086 42.1779 36.1545 41.9859 36.7158 41.4115C37.2758 41.9863 37.9217 42.177 38.6541 41.8167C39.2371 41.5297 39.5404 41.0227 39.5208 40.3732C39.4968 39.5762 39.0464 39.0812 38.2892 38.8365Z" fill="#748B86"/>
</svg>
