<svg width="64" height="64" viewBox="0 0 64 64" fill="none" xmlns="http://www.w3.org/2000/svg">
<rect width="64" height="64" rx="32" fill="#F7FBF6"/>
<path fill-rule="evenodd" clip-rule="evenodd" d="M28.3491 21.0004C28.6284 20.9961 28.7574 21.0262 29.2946 21.2067C29.6384 21.3227 30.1584 21.5118 30.455 21.6321C30.7515 21.7482 31.2328 21.9545 31.5294 22.0877C31.8259 22.2252 32.2686 22.4444 32.5179 22.5733C32.7671 22.7065 33.1797 22.9429 33.4419 23.0933C33.704 23.248 34.1166 23.5102 34.3659 23.6735C34.6151 23.8411 35.0707 24.1634 35.3758 24.3912C35.681 24.6233 36.1279 24.9714 36.3643 25.1691C36.6007 25.3668 37.1637 25.8954 37.6106 26.3466C38.0619 26.7936 38.6335 27.4039 38.8785 27.7004C39.1234 27.9969 39.4844 28.4482 39.6778 28.7103C39.8712 28.9725 40.1936 29.4323 40.3913 29.7418C40.5933 30.0512 40.8984 30.5411 41.0703 30.8377C41.2379 31.1342 41.5302 31.6843 41.715 32.0625C41.8955 32.4407 42.1662 33.0424 42.308 33.3948C42.4499 33.7515 42.6562 34.3102 42.7679 34.6411C42.8796 34.972 42.9828 35.3416 42.9957 35.4576C43.0086 35.578 42.9914 35.7972 42.9613 35.9519C42.9355 36.1066 42.8538 36.343 42.7851 36.4805C42.7163 36.6137 42.5788 36.8157 42.4756 36.9231C42.3768 37.0306 42.2092 37.1724 42.1017 37.2412C41.9943 37.3099 41.788 37.4045 41.6376 37.4517C41.4657 37.5119 41.2594 37.542 41.0574 37.542C40.8898 37.542 40.6405 37.5119 40.5116 37.4732C40.3827 37.4346 40.1893 37.3529 40.0818 37.2927C39.9744 37.2326 39.824 37.1208 39.7423 37.0478C39.6606 36.979 39.5317 36.82 39.4544 36.704C39.3813 36.5836 39.2352 36.257 39.1406 35.9734C39.0418 35.6897 38.8613 35.2041 38.7409 34.8989C38.6206 34.5938 38.3455 33.9921 38.1264 33.5667C37.9115 33.1412 37.5806 32.5395 37.3872 32.2344C37.1938 31.925 36.8843 31.4651 36.6952 31.203C36.5061 30.9408 36.1752 30.5197 35.9603 30.2575C35.7411 29.9953 35.2813 29.4968 34.9332 29.1487C34.5851 28.7963 34.0521 28.3021 33.7513 28.0528C33.4462 27.7992 32.9648 27.4254 32.6769 27.2191C32.3889 27.0128 31.8904 26.6862 31.5724 26.4928C31.2543 26.3037 30.6827 25.9899 30.3045 25.8051C29.9263 25.616 29.3762 25.3668 29.0797 25.2507C28.7831 25.1347 28.3147 24.9628 28.0353 24.8683C27.7603 24.7694 27.4595 24.6448 27.3692 24.5932C27.2832 24.5373 27.1414 24.4342 27.0598 24.3611C26.9781 24.2924 26.8406 24.1291 26.7589 24.0001C26.6773 23.8712 26.5784 23.6563 26.5354 23.5188C26.4925 23.3856 26.4581 23.1449 26.4581 22.9816C26.4581 22.8226 26.4796 22.6077 26.5054 22.5003C26.5312 22.3928 26.5956 22.208 26.6515 22.092C26.7074 21.9716 26.8363 21.7825 26.9394 21.6665C27.0426 21.5505 27.2102 21.3958 27.3176 21.327C27.4251 21.2539 27.6271 21.1508 27.7689 21.0992C27.9451 21.0348 28.1299 21.0047 28.3491 21.0004ZM26.7933 25.7665C26.8105 25.7665 27.1887 25.9169 27.64 26.106C28.0869 26.2908 28.6972 26.5529 28.9937 26.6905C29.2903 26.8237 29.8017 27.0815 30.1326 27.262C30.4636 27.4382 30.975 27.7348 31.2715 27.9196C31.5681 28.1001 32.0021 28.3923 32.2385 28.5599C32.4749 28.7318 32.8703 29.037 33.1195 29.2433C33.3688 29.4452 33.8416 29.8793 34.1768 30.2145C34.5077 30.5454 34.9461 31.0182 35.1438 31.2674C35.3457 31.5167 35.6251 31.882 35.7712 32.084C35.913 32.286 36.1623 32.6599 36.3213 32.922C36.4846 33.1842 36.7425 33.6483 36.9015 33.9535C37.0562 34.2586 37.2883 34.7528 37.4129 35.0494C37.5376 35.3459 37.7439 35.896 37.8771 36.2742C38.006 36.6524 38.1393 37.0134 38.1736 37.0779C38.208 37.1466 38.2295 37.2068 38.2209 37.2197C38.2166 37.2326 37.602 37.4517 36.8585 37.7096C36.115 37.9675 35.1867 38.2898 34.7956 38.423C34.4046 38.5562 33.502 38.87 32.7843 39.1149C32.0709 39.3599 31.4692 39.5619 31.4434 39.5619C31.4176 39.5619 31.4005 39.4845 31.4005 39.39C31.4005 39.2954 31.3704 39.0677 31.3317 38.8829C31.293 38.7024 31.2028 38.4187 31.1254 38.2511C31.048 38.0835 30.889 37.8256 30.773 37.6752C30.6569 37.5205 30.4378 37.2927 30.283 37.1681C30.1283 37.0392 29.8791 36.8716 29.7243 36.7942C29.5696 36.7126 29.3075 36.6051 29.1442 36.5535C28.968 36.502 28.6628 36.4504 28.4135 36.4375C28.0955 36.4203 27.8892 36.4332 27.6185 36.4848C27.4165 36.5278 27.1371 36.6094 26.9953 36.6653C26.8535 36.7254 26.6214 36.8458 26.4796 36.9403C26.3378 37.0306 26.0842 37.2498 25.9166 37.4217C25.7533 37.5936 25.547 37.8514 25.461 37.9932C25.3751 38.1351 25.2418 38.4359 25.1645 38.6594C25.0355 39.0333 25.0227 39.1106 25.0227 39.6049C25.0227 39.9917 25.0441 40.2194 25.1 40.4214C25.143 40.5761 25.2289 40.8168 25.2934 40.9586C25.3579 41.1004 25.461 41.2938 25.5255 41.3884C25.6114 41.513 25.6243 41.5689 25.5857 41.5904C25.5599 41.6033 24.7304 41.9084 23.7505 42.2651C22.7707 42.6218 21.9326 42.9355 21.8896 42.957C21.8509 42.9828 21.7392 43 21.6447 43C21.5372 43 21.4169 42.9613 21.3223 42.9012C21.2407 42.8496 21.1375 42.7378 21.0903 42.6562C21.043 42.5745 21 42.4456 21 42.3768C21 42.3081 21.6962 40.2753 22.5515 37.8643C23.4067 35.4533 24.1115 33.4764 24.1201 33.4678C24.1287 33.4635 24.3049 33.5237 24.5112 33.6054C24.7218 33.687 25.0355 33.7773 25.2118 33.8031C25.4094 33.8374 25.6759 33.846 25.8994 33.8288C26.1272 33.8116 26.4108 33.7515 26.6515 33.6698C26.8621 33.5968 27.1543 33.4678 27.2961 33.3819C27.438 33.2959 27.6958 33.0896 27.8677 32.9263C28.0396 32.7587 28.2588 32.5052 28.3491 32.3633C28.4436 32.2215 28.564 31.9894 28.6241 31.8476C28.68 31.7058 28.7617 31.4265 28.8003 31.2245C28.8562 30.9537 28.8691 30.7517 28.8519 30.4509C28.839 30.2274 28.796 29.9266 28.7574 29.7848C28.7187 29.6429 28.6198 29.3894 28.5425 29.2261C28.4651 29.0585 28.2975 28.792 28.1686 28.6287C28.0439 28.4697 27.8248 28.2419 27.6829 28.1259C27.5411 28.0098 27.2704 27.8379 27.0813 27.7434C26.8922 27.6488 26.63 27.55 26.5011 27.5242C26.3721 27.4941 26.2518 27.4597 26.2303 27.4468C26.2131 27.4339 26.3163 27.0815 26.4538 26.669C26.5956 26.2564 26.7202 25.8825 26.7374 25.8395C26.7546 25.8008 26.7804 25.7665 26.7933 25.7665ZM30.2401 29.0413C30.1928 29.1444 30.1541 29.269 30.1541 29.3206C30.1541 29.3765 30.1842 29.4925 30.2229 29.5785C30.2616 29.6816 30.5452 30.0039 30.9621 30.4208C31.3446 30.8033 31.7099 31.1342 31.8087 31.1815C31.9033 31.2288 32.0279 31.2674 32.0881 31.2674C32.1483 31.2674 32.2772 31.2288 32.376 31.1815C32.5093 31.1213 32.5866 31.044 32.6468 30.9236C32.6941 30.8291 32.7327 30.6916 32.7327 30.6228C32.7327 30.5497 32.7113 30.4423 32.6855 30.3735C32.6597 30.3091 32.3202 29.9352 31.9248 29.5355C31.5294 29.1401 31.1426 28.7877 31.0652 28.7533C30.9922 28.7189 30.8632 28.6889 30.7859 28.6889C30.7128 28.6932 30.5753 28.7318 30.485 28.7748C30.3776 28.835 30.3002 28.9209 30.2401 29.0413ZM32.4964 32.7759C32.3803 32.8318 32.1869 32.9693 32.0666 33.0767C31.942 33.1885 31.7829 33.3991 31.6927 33.571C31.5981 33.7472 31.5122 33.9878 31.4821 34.1683C31.4391 34.4047 31.4348 34.5336 31.4778 34.77C31.5036 34.9333 31.5853 35.1912 31.6583 35.3373C31.7314 35.492 31.8861 35.7069 32.0236 35.8444C32.1611 35.982 32.376 36.1367 32.5265 36.2097C32.6769 36.2828 32.9304 36.3644 33.098 36.3902C33.3301 36.4289 33.4634 36.4289 33.6782 36.3902C33.833 36.3644 34.0908 36.2742 34.2584 36.1925C34.4561 36.098 34.6323 35.9648 34.7742 35.8143C34.8902 35.6897 35.0363 35.4877 35.0922 35.3717C35.1524 35.2514 35.2254 35.058 35.2555 34.9419C35.2856 34.8216 35.3114 34.6196 35.3114 34.4907C35.3114 34.3617 35.2813 34.1383 35.2469 33.9964C35.2082 33.8546 35.118 33.6354 35.0406 33.5108C34.9633 33.3819 34.8171 33.1971 34.7097 33.0982C34.6022 32.9994 34.4303 32.8662 34.3229 32.8017C34.2155 32.7415 34.0135 32.6599 33.8716 32.6212C33.7298 32.5868 33.4977 32.5567 33.3559 32.561C33.2141 32.561 33.0121 32.5868 32.9047 32.6169C32.7972 32.647 32.6167 32.7157 32.4964 32.7759ZM28.9508 34.1984C28.9035 34.3016 28.8648 34.4305 28.8648 34.4907C28.8648 34.5508 28.9035 34.6798 28.9508 34.7786C29.0152 34.9161 29.084 34.9849 29.2172 35.0494C29.3204 35.0966 29.4493 35.1353 29.5095 35.1353C29.5696 35.1353 29.6986 35.0966 29.7974 35.0494C29.9306 34.9849 30.008 34.9118 30.0725 34.7786C30.1369 34.654 30.1584 34.5465 30.1455 34.4262C30.1369 34.3317 30.0897 34.1941 30.0381 34.1254C29.9908 34.0523 29.8834 33.9621 29.7931 33.9191C29.7072 33.8804 29.5739 33.846 29.4966 33.846C29.4235 33.8503 29.286 33.889 29.1957 33.932C29.0883 33.9921 29.0109 34.0781 28.9508 34.1984ZM25.9338 28.7146C26.024 28.7275 26.1615 28.7576 26.2432 28.7834C26.3249 28.8092 26.4882 28.8823 26.6085 28.9467C26.7245 29.0155 26.9136 29.1616 27.0211 29.2776C27.1285 29.3894 27.2661 29.5699 27.3305 29.6773C27.3907 29.7848 27.4723 29.9867 27.511 30.1286C27.5454 30.2704 27.5755 30.4939 27.5755 30.6228C27.5755 30.7517 27.5454 30.9752 27.511 31.117C27.4723 31.2588 27.3907 31.4608 27.3305 31.5683C27.2661 31.6757 27.1328 31.8476 27.034 31.9551C26.9394 32.0625 26.7245 32.2172 26.5612 32.3075C26.3979 32.3934 26.1401 32.488 25.9853 32.5181C25.822 32.5481 25.6028 32.5567 25.4567 32.5395C25.3235 32.5267 25.1086 32.4751 24.984 32.4321C24.8636 32.3848 24.7132 32.3118 24.5542 32.1914L25.143 30.4724C25.4696 29.5269 25.7447 28.7361 25.7576 28.7189C25.7662 28.7017 25.8478 28.6975 25.9338 28.7146ZM28.1987 37.7182C28.3405 37.7139 28.5726 37.744 28.7144 37.7827C28.8562 37.817 29.0668 37.8987 29.1828 37.9632C29.2946 38.0276 29.4923 38.1866 29.6169 38.3156C29.7415 38.4445 29.8963 38.668 29.965 38.8098C30.0295 38.9516 30.1025 39.2009 30.124 39.3685C30.1541 39.5576 30.1541 39.7381 30.0897 40.0475L29.5524 40.2323C29.2559 40.3312 28.5511 40.5718 26.9523 41.1219L26.7847 40.9328C26.6945 40.8297 26.5612 40.6277 26.4925 40.4859C26.428 40.3441 26.3463 40.0905 26.3206 39.9272C26.2776 39.6908 26.2819 39.5619 26.3249 39.3255C26.3549 39.145 26.4409 38.9086 26.5354 38.7281C26.6214 38.5648 26.7804 38.35 26.8879 38.2554C26.9953 38.1566 27.1672 38.0233 27.2747 37.9589C27.3821 37.8987 27.5755 37.817 27.7044 37.7827C27.8334 37.7483 28.0568 37.7182 28.1987 37.7182ZM33.3645 33.846C33.4419 33.846 33.5751 33.8804 33.661 33.9191C33.7513 33.9621 33.8587 34.0523 33.906 34.1254C33.9576 34.1941 34.0049 34.3403 34.0092 34.4477C34.0221 34.5895 34.0006 34.6841 33.9275 34.813C33.8587 34.9333 33.7728 35.0064 33.6353 35.0623C33.502 35.1224 33.3946 35.1396 33.2786 35.1181C33.1883 35.1052 33.0551 35.0365 32.9648 34.9505C32.8832 34.8775 32.7929 34.7442 32.7671 34.6626C32.7456 34.5809 32.737 34.452 32.7499 34.3832C32.7628 34.3102 32.8144 34.1941 32.866 34.1211C32.9175 34.0523 33.0164 33.9578 33.0895 33.9191C33.1668 33.8804 33.2914 33.846 33.3645 33.846Z" fill="#748B86"/>
</svg>
